<svg xmlns="http://www.w3.org/2000/svg" width="320" height="427.9" viewBox="0 0 320 427.9"><filter id="a"><feGaussianBlur stdDeviation="7"/></filter><g opacity=".2" filter="url(#a)"><path fill="#7C0D15" d="M24.4 405.5c-5 0-9.8-4.5-9.8-9.6V24.3c0-5 4.7-9.3 9.8-9.3h226.5c5 0 9.5 4.2 9.5 9.3v73.2c0 5-4.4 9.5-9.5 9.5H124.1v51.9h46.4c52.7 0 90.8 15.9 113.1 46.9 14.4 20.5 21.8 47.1 21.8 79.1 0 34.4-11.4 63.2-34 85-24.3 23.6-58.4 35.8-101.2 35.8l-145.8-.2zm125-91.8c14.3 0 24.8-1.6 31.5-4.4 6.7-2.8 15.6-8.7 15.6-27.1 0-12.8-4.8-21.1-15.4-26.3-7.3-3.4-17.6-5.1-31-5.1h-26v63.1l25.3-.2z"/><path fill="#C1272D" d="M250.9 97.4H114.8v70.9h55.8c49.8 0 85 14.3 105.5 42.9 13.4 19 20.2 43.5 20.2 73.6 0 32-10.4 58.1-31.2 78.1-22.8 22-54.4 32.9-94.9 32.9H24.4V24.3H251l-.1 73.1zM114.8 322.9h34.6c15.6 0 27.3-1.6 35.2-4.9 14.1-5.9 21.2-17.8 21.2-35.8 0-16.4-6.9-27.9-20.6-34.6-8.5-4.1-20.3-6.1-35.2-6.1h-35.2v81.4z"/></g><linearGradient id="b" gradientUnits="userSpaceOnUse" x1="694.347" y1="980.938" x2="694.347" y2="764.895" gradientTransform="translate(-534 -593.1)"><stop offset="0" stop-color="#B40E3D"/><stop offset="1" stop-color="#FF0E3D"/></linearGradient><path fill="url(#b)" d="M250.9 97.4H114.8v70.9h55.8c49.8 0 85 14.3 105.5 42.9 13.4 19 20.2 43.5 20.2 73.6 0 32-10.4 58.1-31.2 78.1-22.8 22-54.4 32.9-94.9 32.9H24.4V24.3H251l-.1 73.1zM114.8 322.9h34.6c15.6 0 27.3-1.6 35.2-4.9 14.1-5.9 21.2-17.8 21.2-35.8 0-16.4-6.9-27.9-20.6-34.6-8.5-4.1-20.3-6.1-35.2-6.1h-35.2v81.4z"/><path fill="#FFF" d="M42.5 377.6V42.9h190.1v36.2H114.8c-10.3 0-18.5 8-18.5 18.3v70.9c0 10.3 8.2 18.3 18.5 18.3h55.8c43.9 0 73.4 11.5 90.3 35.3 11 15.7 16.8 36.9 16.8 63 0 26.9-8.3 48.3-25.6 65-19.3 18.6-46 27.9-82 27.9l-127.6-.2zm72.3-154.9c-10.3 0-18.5 8.3-18.5 18.5v81.4c0 10.3 8.2 18.6 18.5 18.6h34.6c18.2 0 32.2-2.2 42.4-6.6 20.9-8.8 32.5-27.6 32.5-52.7 0-23.4-11-41.6-31-51.4l-.1-.1c-11.1-5.3-25.3-7.9-43.1-7.9l-35.3.2c0-.1 0 0 0 0z" opacity=".5" filter="url(#a)"/><path fill="none" stroke="#FFF" stroke-width="6" stroke-miterlimit="10" d="M80.4 194.1c.7 26.7 52.5 26.7 69.5 26.7s60.9 1.7 60.9-26.7M46.6 332.2c11.5 19.1 60.8 36.5 81.1 34.8"/><ellipse fill="none" stroke="#FFF" stroke-width="6" stroke-miterlimit="10" cx="136" cy="366" rx="8" ry="10.7"/><path fill="none" stroke="#FFF" stroke-width="6" stroke-miterlimit="10" d="M245.3 332.2c-11.5 19.2-60.8 36.5-81.1 34.8"/><ellipse fill="none" stroke="#FFF" stroke-width="6" stroke-miterlimit="10" cx="155.9" cy="366" rx="8" ry="10.7"/><circle fill="#FFF" stroke="#000" stroke-miterlimit="10" cx="65.7" cy="58.5" r="27.5"/><circle cx="77" cy="59.9" r="9.5"/><circle fill="#FFF" stroke="#000" stroke-miterlimit="10" cx="206.9" cy="58.5" r="27.5"/><circle cx="217.9" cy="59.9" r="9.5"/></svg>