<svg xmlns="http://www.w3.org/2000/svg" width="320" height="360.1" viewBox="0 0 320 360.1"><filter id="a"><feGaussianBlur stdDeviation="7"/></filter><path fill="#82000A" filter="url(#a)" d="M234.7 345c-4.3 0-7.7-2.9-7.7-7.3V286H93v51.7c0 4.3-3.4 7.3-7.7 7.3H23.2c-4.3 0-8.2-2.9-8.2-7.3V228.1c0-4.3 3.9-7.1 8.2-7.1h28.4c3.8-6 7.2-12.3 10.1-20.8 5.2-14.7 9.5-37 12.8-65.8 3.4-29.1 5.1-66.7 5.1-111.4 0-4.3 3.5-8.1 7.8-8.1h177c4.3 0 7.4 3.8 7.4 8.1v198h24.8c4.3 0 8.2 2.8 8.2 7.1v109.6c0 4.3-3.9 7.3-8.2 7.3h-61.9zM195 221V81h-42.5c-.2 41-1.8 73.2-4.9 93.4-2.6 17-7.1 31.6-13.6 46.6h61z" opacity=".3"/><path fill="#FFEEDE" stroke="#D3C79E" stroke-miterlimit="10" d="M164.5 84.1c0 1.3-1.1 2.4-2.4 2.4h-11.3c-1.3 0-2.4-1.1-2.4-2.4V72.9c0-1.3 1.1-2.4 2.4-2.4h11.3c1.3 0 2.4 1.1 2.4 2.4v11.2zm31-1c0 1.3-1.1 2.4-2.4 2.4h-11.3c-1.3 0-2.4-1.1-2.4-2.4V71.9c0-1.3 1.1-2.4 2.4-2.4h11.3c1.3 0 2.4 1.1 2.4 2.4v11.2z"/><ellipse fill="#F00" stroke="#C1272D" stroke-width=".616" stroke-miterlimit="10" cx="162.4" cy="230.6" rx="31.5" ry="14.4"/><linearGradient id="b" gradientUnits="userSpaceOnUse" x1="160.014" y1="285.507" x2="160.014" y2="163.512"><stop offset="0" stop-color="#B1000F"/><stop offset="1" stop-color="#FF7C0F"/></linearGradient><path fill="url(#b)" d="M23.2 337.7V228.1h32.2c5.4-6.1 10-14.7 13.8-25.7 5.4-15.3 9.8-37.7 13.2-67.3 3.4-29.5 5.2-66.9 5.2-112.1h177v205h32.2v109.6h-62.1v-59.4H85.3v59.4H23.2zM202.5 73.3h-57.9c0 45.2-1.6 78.4-4.8 99.6-3.2 21.2-9.5 39.6-19 55.2h81.6V73.3z"/><path fill="#FFF" d="M250 322v-43.7c0-8.7-6.6-15.3-15.3-15.3H85.3c-8.7 0-15.3 6.7-15.3 15.3V322H39v-78h16.4c4.5 0 8.8-2 11.8-5.4 6.8-7.7 12.3-17.9 16.8-30.9 5.8-16.6 10.4-39.6 14-70.5 3.1-26.5 4.8-59.1 5.2-98.1H249v189.1c0 8.7 7 15.9 15.6 15.9H281v78h-31zM144.7 57C136 57 129 64.3 129 73c0 44.2-1.6 77.1-4.6 97.5-2.9 19-8.5 35.7-16.9 49.5-2.9 4.8-3 11-.3 16 2.8 4.9 8 8.1 13.7 8.1h81.6c8.7 0 15.5-7.2 15.5-15.9V73.3c0-8.7-6.8-16.3-15.5-16.3h-57.8z" opacity=".5" filter="url(#a)"/><circle fill="#FFF" stroke="#000" stroke-width=".785" stroke-miterlimit="10" cx="119.5" cy="54.8" r="16.3"/><circle fill="#FFF" stroke="#000" stroke-width=".785" stroke-miterlimit="10" cx="226.2" cy="54.8" r="16.3"/><circle cx="125.5" cy="61.8" r="5.6"/><circle cx="223.1" cy="58.5" r="8.3"/><path fill="none" stroke="#000" stroke-width="3.923" stroke-miterlimit="10" d="M98.8 228.5c30.9-17.6 30.6-22 50-24m71.9 24c-6-19-27.2-22.5-41.3-24"/><circle fill="none" stroke="#000" stroke-width="3.923" stroke-miterlimit="10" cx="153.2" cy="203.3" r="5.8"/><circle fill="none" stroke="#000" stroke-width="3.923" stroke-miterlimit="10" cx="175.4" cy="205.7" r="7"/></svg>