<svg xmlns="http://www.w3.org/2000/svg" width="320" height="463.9" viewBox="0 0 320 463.9"><filter id="a"><feGaussianBlur stdDeviation="7"/></filter><path fill="#560015" d="M133.7 448.9c-17.4 0-35.1-1.2-52.7-3.7-17.7-2.5-37.6-7.6-59.2-15.4-4.1-1.4-6.8-5.3-6.8-9.6V336c0-3.4 1.5-6.6 4.4-8.5 1.7-1.2 3.7-1.7 5.7-1.7 1.2 0 2.5.2 3.7.7 23.2 9 43.2 15.4 59.5 18.7 16.1 3.4 33.4 5 51.3 5 7.6 0 14.1-1.2 19.5-3.8 7.6-3.5 10.9-8.2 10.9-15.8 0-6.7-3.8-14-11.3-21.9-1.5-1.3-10.1-8.2-56.2-42.5C71 242.7 50.3 223 39.2 205.9c-12.6-19-18.9-43.5-18.9-72.9 0-38.3 14.6-68 43.4-88.4C91.3 24.9 131.2 15 182.1 15c16.5 0 31.8 1.3 45.8 4.1 14 2.8 29.1 7.7 44.4 14.7 3.7 1.6 6 5.3 6 9.3v84.2c0 3.6-1.9 6.9-5 8.7-1.6 1-3.5 1.5-5.4 1.5-1.6 0-3.2-.4-4.7-1.1-15.5-7.9-30.9-13.7-46-17.3-15.1-3.6-29.1-5.4-41.8-5.4-12.3 0-22.1 2.2-29.3 6.6-5.7 3.5-8.2 7.7-8.2 13.6 0 9 7.5 20.4 21.6 32.8 7.2 6.5 20.4 16 39.4 28.3 25.8 17.2 45.5 33.9 58.4 49.8 20.2 24.4 30.3 51.8 30.3 81.5 0 32.4-9.9 59.3-29.6 80.3-26.5 28-68.3 42.3-124.3 42.3z" opacity=".3" filter="url(#a)"/><path fill="none" stroke="#91101A" stroke-width="5.12" stroke-miterlimit="10" d="M175.1 383.7c32-2.3 101.4 1.6 126.2 14.2"/><circle fill="#FFF" stroke="#000" stroke-width=".967" stroke-miterlimit="10" cx="238.6" cy="214.6" r="20.1"/><circle cx="244.5" cy="218.5" r="6.9"/><linearGradient id="b" gradientUnits="userSpaceOnUse" x1="183.443" y1="93.924" x2="144.886" y2="41.085" gradientTransform="matrix(1 0 0 -1 -96 416)"><stop offset="0" stop-color="#FF0E3D"/><stop offset=".827" stop-color="#940E00"/></linearGradient><path fill="url(#b)" d="M25.2 420.3v-84.2c23.9 9.3 44.2 15.8 61.1 19.3s34.7 5.2 53.4 5.2c9.1 0 17.1-1.5 23.9-4.8 11.2-5.1 16.7-13.5 16.7-25 0-9.5-4.8-19.3-14.3-29.2-1.9-1.9-21.1-16.5-57.2-43.4-30.2-22.6-50.5-41.9-60.8-57.8-11.6-17.5-17.3-39.8-17.3-67.3 0-34.9 13-61.6 39-80.1S133 25.4 182 25.4c15.9 0 30.5 1.3 43.8 3.9s27.3 7.3 42.1 14v84c-16.3-8.4-32.4-14.4-48.3-18.2-15.9-3.8-30.6-5.6-44.1-5.6-14.3 0-25.8 2.7-34.6 8.1-8.7 5.3-13.1 12.8-13.1 22.3 0 12.3 8.4 25.8 25.1 40.5 7.6 6.8 21.1 16.5 40.6 29.2 25.1 16.7 43.7 32.6 56 47.6 18.6 22.6 28.1 47.6 28.1 75 0 29.8-8.9 54.2-26.8 73.2-24.7 26.2-63.6 39.3-116.9 39.3-17.1 0-34.2-1.2-51.3-3.6-17.3-2.4-36.3-7.3-57.4-14.8z"/><path fill="#FFF" d="M133.7 418.2c-16.1 0-32.3-1.1-48.4-3.4-12-1.6-25.2-4.8-39.5-9.3v-40.2c13.3 4.4 25.6 7.8 36.5 10 18.1 3.8 37.5 5.6 57.4 5.6 12.2 0 23-2.3 32.6-6.7 18.3-8.5 28.5-24 28.5-43.5 0-15-6.8-29.6-20.1-43.4l-.3-.3c-1.7-1.7-4.1-4-59.4-45.4-35-26.2-49.8-43-55.9-52.5l-.1-.1c-9.3-14-14-32.8-14-56 0-28.2 9.9-48.8 30.4-63.4 22.4-15.9 56.2-24 100.6-24 14.5 0 28.1 1.2 40 3.5 8.1 1.5 16.3 4.1 25.5 7.5v39.3c-8.2-2.8-15.6-5.1-23.1-6.9-17.4-4.1-33.9-6.2-49-6.2-18.1 0-33.4 3.7-45.3 11.1-14.7 9-22.9 23.1-22.9 39.7 0 18.6 10.4 36.9 32 55.8 8.4 7.5 22.4 17.6 42.9 30.9 23.1 15.5 40.5 30.1 51.5 43.5 15.8 19 23.5 39.3 23.5 62.1 0 24.6-7 43.9-21.3 59.2-20.6 22.1-54.9 33.1-102.1 33.1z" opacity=".5" filter="url(#a)"/><circle fill="#FFF" stroke="#000" stroke-width="1.024" stroke-miterlimit="10" cx="182.7" cy="219.5" r="23.7"/><circle cx="189.7" cy="224.4" r="8.1"/><path fill="none" stroke="#91101A" stroke-width="5.12" stroke-miterlimit="10" d="M206.6 336.2c23.2 13 37.8 16.2 69 9.4m-66.2-23.8c-1.3 9-5.1 20.5-15.9 20.9m-72.9 58.9c68.1 33.3 140.6 34.2 168.5 16.8"/><ellipse fill="none" stroke="#91101A" stroke-width="5.12" stroke-miterlimit="10" cx="307.6" cy="400.4" rx="7.8" ry="9.8"/><ellipse fill="none" stroke="#91101A" stroke-width="5.12" stroke-miterlimit="10" cx="295.1" cy="421.9" rx="7.5" ry="11.6"/></svg>