<svg xmlns="http://www.w3.org/2000/svg" width="320" height="278.2" viewBox="0 0 320 278.2"><filter id="a"><feGaussianBlur stdDeviation="7"/></filter><circle cx="204.4" cy="126.1" r="10"/><circle cx="114.8" cy="126.1" r="10"/><path fill="#00097A" d="M132.4 263c-3.3 0-6.3-2.6-6.3-5.9v-29.4c-3.8 1.8-8.3 3.3-12.5 4.6-7.6 2.2-15.4 3.3-23.4 3.3-23.6 0-42.3-10-55.7-29.7-12.9-19-19.4-44.4-19.4-75.4 0-26.8 9.5-49 28.2-65.8 16.3-14.6 34-22 52.7-22 6.3 0 13 .4 20 1.2 3.7.5 7.2.9 10.2 1.4V21.1c0-3.3 2.9-6.1 6.3-6.1h55.2c3.3 0 6.7 2.8 6.7 6.1v24.4c2.3-.4 5.7-.8 9.6-1.3 8.7-1.1 15.3-1.6 20.3-1.6 19.2 0 36.8 7.3 52.7 21.6 18.7 17 28.2 39.2 28.2 66.1 0 28.1-4.8 51.3-14.4 68.9-12.8 24-33.5 36.2-61.1 36.2-5.6 0-11.1-.6-16.9-1.8-6.5-1.3-13.1-3.3-18.4-5.8V257c0 3.3-3.3 5.9-6.7 5.9l-55.3.1zm61.8-89.8c2.3 1.7 5.5 3 8.8 3.9 4.3 1.2 8.8 1.8 13.4 1.8 8.2 0 13.5-3.7 16.9-11.6 2.9-6.7 4.2-16.9 4.2-30.3 0-10.9-1.2-19.3-3.6-24.9-3.8-8.6-10.1-12.7-20-12.7-3.4 0-6.8.7-10.7 2-3.1 1.1-5.9 2.4-8.9 4l-.1 67.8zm-88.3-73.8c-9.3 0-15.3 3.3-18.7 10.3-2.9 5.9-4.5 15.1-4.5 27.3 0 12.6 1.1 22.1 3.1 28 3.3 9.7 8.6 14 17.7 14 8.2 0 15.9-2 22.8-5.9v-67.4c-2.3-1.1-5.3-2.3-8.8-3.6-5-1.9-8.8-2.7-11.6-2.7z" opacity=".3" filter="url(#a)"/><path d="M202.8 238.6c0 2-1.6 3.6-3.6 3.6h-17c-2 0-3.6-1.6-3.6-3.6v-17c0-2 1.6-3.6 3.6-3.6h17c2 0 3.6 1.6 3.6 3.6v17zm22-3.8c0 1.6-1.3 2.9-2.9 2.9h-13.8c-1.6 0-2.9-1.3-2.9-2.9V221c0-1.6 1.3-2.9 2.9-2.9h13.8c1.6 0 2.9 1.3 2.9 2.9v13.8zm19.6-1.9c0 1.4-1.1 2.5-2.5 2.5h-12.3c-1.4 0-2.5-1.1-2.5-2.5v-12.3c0-1.4 1.1-2.5 2.5-2.5h12.3c1.4 0 2.5 1.1 2.5 2.5v12.3zm-100.5-11.3c0-2-1.6-3.6-3.6-3.6h-17c-2 0-3.6 1.6-3.6 3.6v17c0 2 1.6 3.6 3.6 3.6h17c2 0 3.6-1.6 3.6-3.6v-17zm-26.5-.7c0-1.6-1.3-2.9-2.9-2.9h-13.8c-1.6 0-2.9 1.3-2.9 2.9v13.8c0 1.6 1.3 2.9 2.9 2.9h13.8c1.6 0 2.9-1.3 2.9-2.9v-13.8zm-21.9-.4c0-1.4-1.1-2.5-2.5-2.5H80.7c-1.4 0-2.5 1.1-2.5 2.5v12.3c0 1.4 1.1 2.5 2.5 2.5H93c1.4 0 2.5-1.1 2.5-2.5v-12.3z" fill="#FFEEDE" stroke="#D3C79E" stroke-width=".756" stroke-miterlimit="10"/><radialGradient id="b" cx="259.426" cy="171.059" r="242.969" gradientTransform="matrix(1 0 0 -1 -96 416)" gradientUnits="userSpaceOnUse"><stop offset="0" stop-color="#00F"/><stop offset=".04" stop-color="#071BFF"/><stop offset=".112" stop-color="#14F"/><stop offset=".19" stop-color="#1A69FF"/><stop offset=".273" stop-color="#28F"/><stop offset=".364" stop-color="#28A1FF"/><stop offset=".465" stop-color="#2DB4FF"/><stop offset=".581" stop-color="#30C2FF"/><stop offset=".728" stop-color="#32CAFF"/><stop offset="1" stop-color="#3CF"/></radialGradient><path fill="url(#b)" d="M132.4 257.1v-39.2c-6.6 3.6-13.4 6.5-20.4 8.5-7 2-14.3 3.1-21.8 3.1-21.5 0-38.5-9-50.7-27.1-12.3-18.1-18.4-42.1-18.4-72 0-25.2 8.8-45.6 26.2-61.3C62.5 55.6 78.7 48.8 96 48.8c6.1 0 12.6.4 19.4 1.2 6.8.8 12.5 1.7 17 2.9V21.2h55.2v31.7c2.7-.7 8.3-1.5 16.7-2.6 8.4-1.1 15-1.5 19.7-1.5 17.7 0 33.9 6.7 48.7 20.1 17.5 15.9 26.2 36.4 26.2 61.6 0 27.2-4.5 49.3-13.6 66.1-11.8 22-30.4 33-55.9 33-5.2 0-10.6-.5-16-1.7-9.3-1.8-17.9-5.1-25.9-9.9v39.2h-55.1zm0-80.7v-74.5c-3.2-1.8-7.5-3.7-12.9-5.6-5.4-1.9-10-2.9-13.6-2.9-11.6 0-19.7 4.5-24.2 13.6-3.4 6.8-5.1 16.8-5.1 29.9 0 13.4 1.1 23.4 3.4 29.9 4.1 12 11.9 18.1 23.5 18.1 10.4 0 20.1-2.8 28.9-8.5zm55.1-74.6v74.5c4.1 2.9 8.5 5.1 13.5 6.5 4.9 1.4 9.9 2 15.1 2 10.7 0 18.1-5.1 22.4-15.3 3.2-7.5 4.8-18.4 4.8-32.7 0-11.8-1.4-20.9-4.1-27.2-4.8-10.9-13.3-16.3-25.5-16.3-4.1 0-8.4.8-12.9 2.4-4.5 1.6-9 3.6-13.3 6.1z"/><path fill="#FFF" d="M144.3 244.8v-26.9c0-4.3-2.1-8.2-5.8-10.4-1.9-1.1-3.9-1.7-6.1-1.7-2 0-4 .5-5.8 1.5-5.7 3.2-11.8 5.7-17.9 7.5-5.9 1.7-12.1 2.6-18.4 2.6-17.5 0-30.8-7.1-40.7-21.8-10.7-15.9-16.3-37.9-16.3-65.2 0-21.8 7.3-38.9 22.2-52.3 13-11.6 26.3-17.3 40.6-17.3 5.6 0 11.6.4 18 1.1 6.3.8 11.5 1.6 15.5 2.6 1 .2 2 .4 2.9.4 2.6 0 5.2-.9 7.3-2.6 2.9-2.3 4.5-5.8 4.5-9.5V33.3H176V53c0 3.7 1.4 7.3 4.4 9.5 2.1 1.7 4.6 2.6 7.3 2.6 1 0 1.9-.2 2.9-.4 1.3-.3 4.8-1.1 15.2-2.3 7.9-1 14-1.4 18.3-1.4 14.7 0 28 5.5 40.5 16.9 15 13.6 22.2 30.8 22.2 52.7 0 25.1-4.1 45.4-12.2 60.3-9.8 18.2-24.1 26.7-45.2 26.7-4.4 0-8.9-.5-13.5-1.4h-.2c-7.9-1.5-15.3-4.4-22-8.4-1.9-1.1-4.1-1.7-6.2-1.7-2 0-3.9.5-5.7 1.6-3.8 2.1-5.8 6.2-5.8 10.5V245h-31.7zm69.4-163.5c-5.4 0-11.1 1.1-16.9 3-5.2 1.8-10.1 4.2-15 7.1-3.7 2.2-5.7 6.1-5.7 10.4v74.5c0 3.9 1.6 7.6 4.8 9.8 5.2 3.8 10.9 6.6 17.2 8.3 5.9 1.7 12 2.5 18.3 2.5 15.5 0 27.4-8.1 33.6-22.7 3.9-9.1 5.7-21.3 5.7-37.4 0-13.6-1.7-24-5.1-32 0 0 0-.1-.1-.1-6.8-15-19.8-23.4-36.8-23.4zm-107.8 0c-20.6 0-30.4 11-35 20.3-4.3 8.6-6.3 20.2-6.3 35.4 0 14.9 1.4 26 4.1 33.9 5.7 16.9 18.1 26.2 34.9 26.2 12.8 0 24.6-3.5 35.4-10.4 3.5-2.2 5.4-6 5.4-10.2V102c0-4.3-2.2-8.4-6-10.5-3.9-2.2-8.7-4.3-14.8-6.5-7-2.6-12.7-3.7-17.7-3.7z" opacity=".5" filter="url(#a)"/></svg>