<svg xmlns="http://www.w3.org/2000/svg" width="320" height="379" viewBox="0 0 320 379"><filter id="a"><feGaussianBlur stdDeviation="7"/></filter><path fill="none" stroke="#351115" stroke-width="4.214" stroke-miterlimit="10" d="M106.5 234.9s37.3 28.2 47.6 53.5"/><circle fill="none" stroke="#351115" stroke-width="4.214" stroke-miterlimit="10" cx="158.4" cy="291.8" r="7.7"/><path fill="#3F270F" d="M23.4 363.9c-4.6 0-8.4-3.8-8.4-8.5V30.2c0-4.6 3.8-8.5 8.4-8.5H101c4.6 0 8.3 3.9 8.3 8.5V178L281.6 17.3c1.6-1.4 3.6-2.4 5.8-2.4h9.6c4.6 0 8 3.9 8 8.5V349c0 4.6-3.4 8.8-8 8.8h-77.6c-4.6 0-8.8-4.1-8.8-8.8V199.6L39.1 361.5c-1.6 1.5-3.5 2.4-5.6 2.4H23.4z" opacity=".3" filter="url(#a)"/><circle fill="#FFF" stroke="#000" stroke-width=".796" stroke-miterlimit="10" cx="255.4" cy="43" r="16.5"/><circle cx="254.4" cy="40.3" r="5.6"/><radialGradient id="b" cx="200.394" cy="84.791" r="290.567" gradientTransform="matrix(1 0 0 -1 -96 416)" gradientUnits="userSpaceOnUse"><stop offset=".428" stop-color="#CF0000"/><stop offset="1" stop-color="#FF7C0F"/></radialGradient><path fill="url(#b)" d="M219.3 180.2L33.5 355.4h-10V30.2h77.6v167.1L287.3 23.5h9.6v325.6h-77.6V180.2z"/><path fill="#FFF" d="M235.8 332.7V180.2c0-6.7-3.8-12.8-10-15.5-2.2-.9-4.3-1.3-6.6-1.3-4.2 0-8.3 1.6-11.5 4.6L40.3 325.8V47h43.8v150.3c0 6.7 4 12.8 10.2 15.4 2.2.9 4.5 1.4 6.7 1.4 4.2 0 8.1-1.6 11.3-4.6L279.6 53.3v279.4h-43.8z" opacity=".5" filter="url(#a)"/><circle fill="#FFF" stroke="#000" stroke-width=".843" stroke-miterlimit="10" cx="226.2" cy="70.6" r="19.5"/><circle cx="226.1" cy="68.7" r="6.7"/><path fill="none" stroke="#351115" stroke-width="4.214" stroke-miterlimit="10" d="M241.9 107.9c13.5 8.8 51.2 10.6 55 10.6m-55-18.8l-3.1 15.8M69.7 252.6s2.9 73 73.5 79.3"/><circle fill="none" stroke="#351115" stroke-width="4.214" stroke-miterlimit="10" cx="143.5" cy="334" r="10.5"/></svg>