<svg xmlns="http://www.w3.org/2000/svg" width="320" height="250.1" viewBox="0 0 320 250.1"><filter id="a"><feGaussianBlur stdDeviation="7"/></filter><path fill="none" stroke="#006837" stroke-width="2.339" stroke-miterlimit="10" d="M49.7 195.9s42.9-5.1 56.2 3.4"/><path fill="#005604" d="M149.2 235.3c-3.1 0-5.1-2.4-5.1-5.5v-83.4H77.3v83.4c0 3.1-2.9 5.5-6 5.5H20.4c-3.1 0-5.4-2.4-5.4-5.5V20.5c0-3.1 2.3-5.5 5.4-5.5h50.9c3.1 0 6 2.5 6 5.5V94h66.8V20.5c0-3.1 2-5.5 5.1-5.5h50.9c3.1 0 5.5 2.5 5.5 5.5V94h27.1c22.7 0 41 7.7 54.4 22.7 11.8 13.1 17.8 29 17.8 47.1 0 19.7-6.5 36.2-19.5 49.5-14.4 14.7-34.2 22-58.6 22h-77.6zm73.2-52.4c5.9 0 10.6-1.9 14.4-6 3.9-4.3 5.8-9.2 5.8-15.2 0-6.2-2.1-10-7-12.4-3.8-1.9-9.4-2.9-16.6-2.9h-13.3v36.5h16.7z" opacity=".3" filter="url(#a)"/><circle fill="#FFF" stroke="#000" stroke-miterlimit="10" cx="209" cy="91" r="10.9"/><circle cx="212.8" cy="91.8" r="3.8"/><radialGradient id="b" cx="326.235" cy="250.659" r="161.886" gradientTransform="matrix(1 0 0 -1 -96 416)" gradientUnits="userSpaceOnUse"><stop offset=".277" stop-color="#0F0"/><stop offset="1" stop-color="#8ED33A"/></radialGradient><path fill="url(#b)" d="M149.2 20.5h50.9v79.2h32.7c21.1 0 37.9 6.9 50.3 20.7 10.9 12.2 16.3 26.6 16.3 43.4 0 18.2-6 33.4-17.9 45.6-13.4 13.6-31.6 20.4-54.7 20.4h-77.6v-88.9H71.3v88.9H20.4V20.5h50.9v79.2h77.9V20.5zm50.9 120.4v47.8h22.3c7.5 0 13.7-2.7 18.5-7.9s7.2-11.6 7.2-19c0-8.2-3.3-14.1-10-17.4-4.6-2.3-11-3.5-19.1-3.5h-18.9z"/><path fill="#FFF" d="M160.9 218.6v-77.7c0-6.2-5.5-11.2-11.6-11.2h-78c-6.2 0-11.5 5-11.5 11.2v77.7H31.7V31.7h28.1v68.1c0 6.2 5.3 10.9 11.5 10.9h77.9c6.2 0 11.6-4.8 11.6-10.9V31.7H189v68.1c0 6.2 5 10.9 11.2 10.9h32.7c18 0 31.7 5.7 41.9 17.1 9.1 10.1 13.5 22 13.5 35.9 0 15.3-4.8 27.7-14.7 37.8-11.3 11.5-26.6 17.1-46.7 17.1h-66zm39.2-88.9c-6.2 0-11.2 5-11.2 11.2v47.8c0 6.2 5 10.9 11.2 10.9h22.3c10.6 0 19.9-3.9 26.7-11.4 6.8-7.4 10.2-16.3 10.2-26.4 0-12.4-5.8-22.1-16.2-27.3-6.2-3.1-14.1-4.6-24.2-4.6l-18.8-.2z" opacity=".5" filter="url(#a)"/><circle fill="#FFF" stroke="#000" stroke-miterlimit="10" cx="192" cy="113" r="15"/><circle cx="198.1" cy="113.7" r="5.2"/><path fill="none" stroke="#006837" stroke-width="3.798" stroke-miterlimit="10" d="M290.1 198.5s-30.8 7.3-36.3-7.1m1.6-7.4c-1.3 7.3-2.1 11.7-8.1 7.8"/><path fill="none" stroke="#006837" stroke-width="2.339" stroke-miterlimit="10" d="M44.4 208.6c21.5 6.8 49.7 7.9 63 5.4"/><circle fill="none" stroke="#006837" stroke-width="2.339" stroke-miterlimit="10" cx="109.7" cy="213.8" r="4.6"/><circle fill="none" stroke="#006837" stroke-width="2.339" stroke-miterlimit="10" cx="107.8" cy="200" r="3.8"/></svg>