<svg xmlns="http://www.w3.org/2000/svg" width="320" height="360.4" viewBox="0 0 320 360.4"><filter id="a"><feGaussianBlur stdDeviation="7"/></filter><path fill="none" stroke="#0063A0" stroke-width="3.217" stroke-miterlimit="10" d="M82.7 147.6s46.5 20.1 45.8 34.7c-.7 14.6-20.1 32.6-20.1 32.6"/><circle fill="none" stroke="#0063A0" stroke-width="3.217" stroke-miterlimit="10" cx="100.7" cy="219.3" r="7.6"/><path fill="#035984" d="M172.6 345.7c-48.7 0-88.2-17.1-117.5-50.7-26.9-30.9-40.5-69.3-40.5-114.3 0-40.5 11.3-76.3 33.7-106.6 28.6-38.8 70.8-58.4 125.2-58.4 26.4 0 50.2 3.5 70.7 10.4s39.9 17.1 57.7 30.2c1.8 1.3 2.9 3.3 3.2 5.5.3 2.2-.3 4.3-1.7 6.1l-37.6 46.7c-1.6 1.9-3.9 3-6.3 3-1.7 0-3.4-.6-4.8-1.6-11.4-8.5-22.4-14.9-32.9-18.8-10.2-3.9-22-5.8-35.2-5.8-25.3 0-44.9 8-59.8 24.3C112 132 104.4 154 104.4 181c0 25.2 6.3 46.2 18.7 62.4 13.9 18.3 33 27.1 58.4 27.1 14.2 0 27.2-2 38.9-6 11.6-3.9 22.9-10.6 33.9-19.7 1.4-1.2 3.3-1.8 5.1-1.8.3 0 .6 0 .9.1 2.2.2 4.2 1.4 5.5 3.1l37.6 48.5c1.4 1.7 1.9 3.9 1.6 6-.3 2.1-1.4 4.1-3.2 5.4-18.1 13.1-37.8 23.2-58.4 29.9-20.5 6.4-44.4 9.7-70.8 9.7z" opacity=".3" filter="url(#a)"/><circle fill="#FFF" stroke="#000" stroke-width=".68" stroke-miterlimit="10" cx="279.5" cy="35" r="20.3"/><circle cx="279.5" cy="35.4" r="6.9"/><linearGradient id="b" gradientUnits="userSpaceOnUse" x1="274.44" y1="189.038" x2="244.355" y2="344.318" gradientTransform="matrix(1 0 0 -1 -96 416)"><stop offset="0" stop-color="#0096FF"/><stop offset="1" stop-color="#B9D7DE"/></linearGradient><path fill="url(#b)" d="M297.2 62.9l-37.6 46.7c-12.1-9.1-23.7-15.7-34.9-19.9-11.2-4.3-23.9-6.4-38-6.4-27.5 0-49.4 8.9-65.6 26.9-16.3 17.9-24.5 41.5-24.5 70.7 0 27.1 6.8 49.5 20.4 67.3 15.4 20.2 37 30.2 64.8 30.2 15.1 0 28.9-2.2 41.4-6.4 12.5-4.3 24.7-11.3 36.4-21.2l37.6 48.5c-17.5 12.7-36.2 22.3-56.1 28.8s-42.7 9.7-68.4 9.7c-46.5 0-83.7-16-111.4-47.9-25.7-29.6-38.5-66-38.5-109.1C22.8 141.9 33.5 108 55 79c27-36.7 66.6-55.2 118.5-55.2 25.7 0 48.4 3.3 68.1 10 19.9 6.7 38.4 16.4 55.6 29.1z"/><path fill="#FFF" d="M172.6 321.6c-42 0-74.5-13.8-99.3-42.4-23.2-26.8-34.6-59-34.6-98.5 0-35.7 9.5-65.9 29-92.2 24.2-32.7 58.8-48.7 105.8-48.7 23.8 0 45 3.1 63.1 9.1 12.9 4.3 25.3 10.1 37.1 17.3l-17.2 21.4c-8.8-5.6-17.5-10.1-26.1-13.3-13-4.9-27.7-7.4-43.8-7.4-32.1 0-58.2 10.8-77.5 32.2-19 20.9-28.6 48.3-28.6 81.6 0 30.6 8 56.5 23.7 77.1 18.5 24.3 44.6 36.6 77.5 36.6 16.8 0 32.5-2.5 46.7-7.3 9.6-3.3 19-8 28.2-14.1l17.3 22.3c-12.1 7.2-24.7 13-37.8 17.3-18.3 6-39.6 9-63.5 9z" opacity=".5" filter="url(#a)"/><circle fill="#FFF" stroke="#000" stroke-width=".804" stroke-miterlimit="10" cx="229" cy="42.2" r="23.9"/><circle cx="229" cy="42.6" r="8.2"/><path fill="none" stroke="#0063A0" stroke-width="3.217" stroke-miterlimit="10" d="M52.7 151s-40.2 27.8-40.2 41.6 47.9 30.5 47.9 30.5"/><circle fill="none" stroke="#0063A0" stroke-width="3.217" stroke-miterlimit="10" cx="68.7" cy="223.5" r="8.4"/></svg>