<svg xmlns="http://www.w3.org/2000/svg" width="320" height="357.4" viewBox="0 0 320 357.4"><filter id="a"><feGaussianBlur stdDeviation="7"/></filter><path fill="none" stroke="#600" stroke-width="3.249" stroke-miterlimit="10" d="M164.1 237.7c-45.3-4.1-87.6-2.4-93.6 14.1"/><ellipse fill="none" stroke="#600" stroke-width="3.249" stroke-miterlimit="10" cx="70.5" cy="252.2" rx="6.5" ry="5.6"/><path fill="#600" d="M99.5 341.8c-8.4 0-17.1-.8-26.2-2.4-8.7-1.5-17.4-3.6-26.2-6.1-3.5-1-5.7-4.1-5.7-7.8v-60.9c0-2.7 1.1-5.3 3.4-6.7 1.4-.9 2.8-1.4 4.4-1.4 1.1 0 2 .2 3.1.6 13.6 5.7 30.6 8.5 50.9 8.5 5.2 0 10.4-1.6 15.8-5 4.5-2.8 9-6.3 13.2-10.6L15.9 26.8c-1.3-2.5-1.2-5.5.2-8 1.5-2.4 4.1-3.9 6.9-3.9h76.8c3 0 5.8 1.7 7.1 4.3l64 121.1 41.4-120c1.1-3.2 4.2-5.4 7.7-5.4h76.8c2.7 0 5.1 1.3 6.7 3.5s1.9 5 1 7.5l-84.2 231.9c-11.6 31.5-28.8 54.2-51.1 67.3-18.6 11.1-42.1 16.7-69.7 16.7z" opacity=".3" filter="url(#a)" enable-background="new"/><linearGradient id="b" gradientUnits="userSpaceOnUse" x1="418.1224" y1="280.3543" x2="477.8244" y2="104.9053" gradientTransform="translate(-332 -40)"><stop offset="0" stop-color="#F00"/><stop offset="1" stop-color="#FF7C0F"/></linearGradient><path fill="url(#b)" d="M172.7 160.8l47.5-137.7H297l-84.2 232c-11 29.8-26.8 50.9-47.6 63-17.7 10.3-39.6 15.5-65.9 15.5-8 0-16.2-.7-24.7-2.3-8.5-1.5-17.1-3.5-25.6-5.9v-60.9c14.6 6.1 32.7 9.2 53.9 9.2 6.7 0 13.4-2 20.1-6.2 6.7-4.2 13-9.5 18.8-16.2L23.1 23.1h76.8l72.8 137.7z"/><path fill="#FFF" d="M99.5 317.4c-7 0-14.1-.6-21.7-2-4.1-.7-8-1.5-12-2.5v-26.5c11.4 2.4 23.8 3.6 37.5 3.6 9.7 0 19.3-2.9 28.5-8.6 8.1-5 15.7-11.5 22.5-19.5 4.4-5 5.2-12.2 2.1-18.1L49.9 39.3h40.3l68.2 129c2.8 5.4 8.4 8.7 14.4 8.7.4 0 .8 0 1.2-.1 6.4-.5 12-4.8 14.1-10.9l43.8-126.7H274l-76.3 210.2c-9.6 26-23.2 44.4-40.5 54.6-15.1 8.8-34.5 13.3-57.7 13.3z" opacity=".5" filter="url(#a)" enable-background="new"/><circle fill="#FFF" stroke="#000" stroke-width=".867" stroke-miterlimit="10" cx="241.8" cy="63.2" r="25.8"/><circle cx="231.5" cy="62.3" r="8.9"/><circle fill="#FFF" stroke="#000" stroke-width=".7" stroke-miterlimit="10" cx="78.9" cy="64.1" r="20.8"/><circle cx="70.6" cy="63.3" r="7.1"/><path fill="none" stroke="#600" stroke-width="3.249" stroke-miterlimit="10" d="M181.7 251.3c21.8 24.1 80.6 60 37 81.8"/><ellipse fill="none" stroke="#600" stroke-width="3.249" stroke-miterlimit="10" cx="212.3" cy="334" rx="6.5" ry="8"/><path fill="none" stroke="#600" stroke-width="3.249" stroke-miterlimit="10" d="M120.6 209s54.1 2.9 60.6-13.6m.6-10.3c-.9 11.9-4.5 14.6 7.5 9.5"/></svg>