<svg xmlns="http://www.w3.org/2000/svg" width="320" height="330" viewBox="0 0 320 330"><filter id="a"><feGaussianBlur stdDeviation="7"/></filter><path opacity=".2" fill="#004884" filter="url(#a)" d="M230.1 314.2c-2.8 0-5.3-1.8-6.4-4.3L208 276.2h-96.3L96.1 310c-1.2 2.5-3.7 4.3-6.4 4.3h-67c-2.4 0-4.7-1.1-6-3.2-1.3-2.1-1.5-4.6-.4-6.8L150.5 19.6c1.2-2.5 3.7-4.4 6.4-4.4h5.9c2.7 0 5.2 1.9 6.4 4.4l134.2 284.5c1 2.2.9 4.7-.4 6.8-1.3 2.1-3.6 3.3-6 3.3h-66.9zm-51.6-106l-18.7-34.5-18.9 34.5h37.6z"/><linearGradient id="b" gradientUnits="userSpaceOnUse" x1="159.8857" y1="134.0934" x2="159.8857" y2="309.8321"><stop offset="0" stop-color="#46C7F4"/><stop offset="1" stop-color="#4685C5"/></linearGradient><path fill="url(#b)" d="M107.2 269.8l-17.6 37.6H22.7L157 23.1h5.9L297 307.4h-66.9l-17.6-37.6H107.2zm21.7-54.8h61.5l-30.5-56.5-31 56.5z"/><path fill="#FFF" d="M239.2 294.2l-13.7-29.6c-2.3-5-7.3-8.4-12.9-8.4H107.2c-5.5 0-10.5 3.4-12.9 8.4l-13.7 29.6H45.1l114.8-243 114.8 243.1h-35.5zm-79.3-151c-5.2 0-10 3.4-12.4 7.9l-30.9 56.7c-2.4 4.4-2.3 9.4.2 13.7 2.6 4.3 7.2 6.6 12.2 6.6h61.5c5 0 9.6-2.2 12.2-6.5 2.6-4.3 2.7-9.4.3-13.8l-30.5-56.9c-2.6-4.3-7.4-7.7-12.6-7.7z" opacity=".5" filter="url(#a)"/><g fill="none" stroke="#000" stroke-miterlimit="10"><path stroke-width=".7098" d="M82.3 175.6s-34.6-3.9-33.7-50"/><path d="M52 120.8c0 1.7-1.3 3-3 3h-8c-1.7 0-3-1.3-3-3s1.3-3 3-3h8c1.7 0 3 1.3 3 3z"/><path stroke-width=".7098" d="M238.8 184s27.2.8 35.9-42.1"/><path d="M279 136.2c0-2.5-2-4.4-4.4-4.4h-.1c-2.5 0-4.4 2-4.4 4.4v1.1c0 2.5 2 4.4 4.4 4.4h.1c2.5 0 4.4-2 4.4-4.4v-1.1z"/></g><path fill="none" stroke="#0D72B9" stroke-width="2.1294" stroke-miterlimit="10" d="M106.7 214.7c.5 33.7 40.2 33.7 53.2 33.7s46.7 2.2 46.7-33.7"/><circle fill="#FFF" stroke="#000" stroke-miterlimit="10" cx="130.1" cy="149.3" r="20.7"/><circle cx="130.1" cy="149.3" r="7.1"/><circle fill="#FFF" stroke="#000" stroke-miterlimit="10" cx="186.8" cy="149.3" r="20.7"/><circle cx="186.8" cy="149.3" r="7.1"/></svg>