<svg xmlns="http://www.w3.org/2000/svg" width="320" height="426.6" viewBox="0 0 320 426.6"><filter id="a"><feGaussianBlur stdDeviation="7"/></filter><path opacity=".3" filter="url(#a)" fill="#8C0352" d="M24.5 411.4c-5.2 0-9.5-4.4-9.5-9.6V23.9c0-5.2 4.3-9.7 9.5-9.7h144.7c39.3 0 70.1 12.3 91.6 36.2 17.8 19.9 26.8 44 26.8 71.6 0 20.7-6.3 38.9-18.6 54-6.9 8.5-14.9 15.6-23.8 21.1 15 7.3 27.6 17.3 37.7 29.9 14.7 18.5 22.2 40.9 22.2 66.3 0 33.4-10.5 61.3-31 82.7-22.6 23.4-53.3 35.3-91.4 35.3H24.5zm127.7-93.1c14.7 0 25.3-2.7 31.5-7.7 7.2-5.8 10.6-14.3 10.6-26.1 0-10.5-3.2-18.8-10-24.9-6.8-6.3-17.9-9.6-32.8-9.6h-25.4v68.4l26.1-.1zm-12.5-161.6c16 0 22.4-1.9 24.9-3 4.9-2.3 11.5-7.2 11.5-23.2 0-13-6-17.5-11.2-19.8-3.6-1.5-11-3.4-25.3-3.4h-13.4v49.4h13.5z"/><path fill="#FDFAED" stroke="#93278F" stroke-width="2.85" stroke-miterlimit="10" d="M171.5 95.5s1.6 16-6 16-33.8 1.2-38.3.4c-4.4-.8-6-4-6-13.1.1-9.3 50.3-3.3 50.3-3.3z"/><radialGradient id="b" cx="247.077" cy="220.648" r="296.671" gradientTransform="translate(-192 -171)" gradientUnits="userSpaceOnUse"><stop offset=".573" stop-color="#FF6CBA"/><stop offset="1" stop-color="#BB27D4"/></radialGradient><path fill="url(#b)" d="M24.5 401.8V23.9h144.7c36.7 0 64.9 11 84.6 32.9 16.2 18.1 24.4 39.9 24.4 65.3 0 18.5-5.5 34.5-16.4 48-10.9 13.4-24.6 22.8-40.9 28.1 23.1 6.5 41.3 18.1 54.7 34.9 13.4 16.8 20.1 37 20.1 60.4 0 31-9.5 56.3-28.4 76-20.8 21.6-49 32.3-84.6 32.3H24.5zm91.9-235.5h23.3c13.6 0 23.3-1.3 29-4 11.3-5.3 17-15.9 17-31.7 0-14-5.7-23.5-17-28.4-6.5-2.7-16.1-4-29-4h-23.3v68.1zm0 161.1h35.7c17 0 29.5-3.2 37.4-9.7 9.4-7.6 14.2-18.7 14.2-33.4 0-13.2-4.4-23.8-13-31.7-8.7-8-21.8-11.9-39.1-11.9h-35.2v86.7z"/><path fill="#FFF" d="M43.5 382.9V42.7h125.7c31.4 0 54.3 8.8 70.4 26.7 13.1 14.6 19.6 31.9 19.6 52.6 0 14.2-4 25.9-12.2 35.9-8.7 10.6-19.2 17.9-32 22-8 2.6-13.3 10.1-13.1 18.4.2 8.4 5.8 15.7 13.9 17.9 19.3 5.4 34 14.7 45 28.4 10.7 13.5 16 29.4 16 48.6 0 26.1-7.5 46.7-23.1 62.9-17.2 17.9-40.4 26.6-70.9 26.6l-139.3.2zm72.9-161.6c-10.5 0-18.7 8.7-18.7 19.3v86.8c0 10.5 8.3 19.4 18.7 19.4h35.7c21.7 0 37.8-4.7 49.4-14.1 9.7-7.8 21.3-22.6 21.3-48.4 0-18.4-6.7-34.5-19.2-46-12.3-11.2-29.7-17.1-52-17.1h-35.2zm0-142.5c-10.5 0-18.7 8.9-18.7 19.4v68.1c0 10.5 8.3 18.9 18.7 18.9h23.3c16.8 0 28.6-1.8 37-5.7 10.5-4.8 27.9-17.7 27.9-48.9 0-21.6-10.1-37.8-28.5-45.8-.1-.1-.2-.3-.4-.4-8.8-3.6-20.7-5.6-36.1-5.6h-23.2z" opacity=".5" filter="url(#a)"/><path fill="none" stroke="#93278F" stroke-width="5.701" stroke-miterlimit="10" d="M53.3 230.6C73 242.3 119.5 217 137 205.7"/><ellipse transform="rotate(-28 143.86 200.887)" fill="none" stroke="#93278F" stroke-width="5.701" stroke-miterlimit="10" cx="143.9" cy="200.9" rx="8.3" ry="10.9"/><path fill="none" stroke="#93278F" stroke-width="5.701" stroke-miterlimit="10" d="M220.9 227.6c-19.7 11.7-52.4-14.4-69.8-25.7"/><ellipse transform="rotate(-152 144.178 197.02)" fill="none" stroke="#93278F" stroke-width="5.701" stroke-miterlimit="10" cx="144.2" cy="197" rx="8.3" ry="10.9"/><circle fill="#FFF" stroke="#000" stroke-width="1.045" stroke-miterlimit="10" cx="112.9" cy="26.9" r="24.1"/><circle cx="117.2" cy="20.3" r="8.3"/><circle fill="#FFF" stroke="#000" stroke-width="1.045" stroke-miterlimit="10" cx="184.2" cy="26.9" r="24.1"/><circle cx="187.6" cy="20.3" r="8.3"/></svg>