<svg xmlns="http://www.w3.org/2000/svg" width="320" height="430" viewBox="0 0 320 430"><filter id="a"><feGaussianBlur stdDeviation="7"/></filter><path fill="#2A4702" d="M53.3 418.2c-5.3 0-9.8-4-9.8-9.4V24.7c0-5.3 4.4-10 9.8-10h219.2c5.3 0 9.6 4.7 9.6 10v75.6c0 5.3-4.2 9.9-9.6 9.9h-116v298.7c0 5.3-4.4 9.4-9.8 9.4H53.3z" opacity=".3" filter="url(#a)"/><path fill="#8ED33A" d="M272.4 100.3H146.7v308.6H53.3V24.7h219.2l-.1 75.6z"/><circle fill="#FFF" stroke="#000" stroke-width=".966" stroke-miterlimit="10" cx="117.6" cy="15.9" r="13.9"/><circle cx="122.4" cy="14.9" r="4.8"/><linearGradient id="b" gradientUnits="userSpaceOnUse" x1="354.847" y1="547.164" x2="354.847" y2="352.154" gradientTransform="translate(-192 -171)"><stop offset="0" stop-color="#006400"/><stop offset="1" stop-color="#8ED33A"/></linearGradient><path fill="url(#b)" stroke="#006837" stroke-width="1.931" stroke-miterlimit="10" d="M272.4 100.3H146.7v308.6H53.3V24.7h219.2l-.1 75.6z"/><path fill="#FFF" d="M72.5 389.3V43.6H253v37.7H146.7c-10.6 0-19.2 8.4-19.2 19v289h-55z" opacity=".5" filter="url(#a)"/><path fill="none" stroke="#006837" stroke-width="4.828" stroke-miterlimit="10" d="M145.3 122.8s-42 8-64.8-18.4m16 62.7c21.5 24.6 67 49.5 81.2 53.4m-31-57.2s48.2 6 57.4 23.6"/><path fill="none" stroke="#006837" stroke-width="4.828" stroke-miterlimit="10" d="M214.4 181.6c-1.8-2.3-5.1-2.7-7.4-.9l-9.1 7.1c-2.3 1.8-2.7 5.1-.9 7.4 1.8 2.3 5.1 2.7 7.4.9l9.1-7.1c2.4-1.8 2.7-5.1.9-7.4zm-36 25.2c-2.8.9-4.4 3.8-3.6 6.6l3.3 11.1c.9 2.8 3.8 4.4 6.6 3.6 2.8-.9 4.4-3.8 3.6-6.6l-3.3-11.1c-.8-2.8-3.8-4.5-6.6-3.6z"/><circle fill="#FFF" stroke="#000" stroke-width=".966" stroke-miterlimit="10" cx="88.4" cy="36" r="19.1"/><circle cx="96.1" cy="37" r="6.6"/></svg>