<svg xmlns="http://www.w3.org/2000/svg" width="320" height="480.1" viewBox="0 0 320 480.1"><filter id="a"><feGaussianBlur stdDeviation="7"/></filter><path fill="#013A47" d="M25.2 464.4c-5.9 0-10.2-4.9-10.2-10.8V26.1C15 20.2 19.3 15 25.2 15h268.9c5.9 0 10.9 5.2 10.9 11.1v84.1c0 5.9-5 10.7-10.9 10.7H140.2v64.2h153.9c5.9 0 10.9 5.2 10.9 11.1v84.1c0 5.9-5 10.8-10.9 10.8H140.2v67.4h153.9c5.9 0 10.9 5.1 10.9 11v84.1c0 5.9-5 10.8-10.9 10.8H25.2z" opacity=".3" filter="url(#a)"/><linearGradient id="b" gradientUnits="userSpaceOnUse" x1="255.643" y1="185.208" x2="255.643" y2="16.499" gradientTransform="matrix(1 0 0 -1 -96 416)"><stop offset="0" stop-color="#3CF"/><stop offset="1" stop-color="#005AFF"/></linearGradient><path fill="url(#b)" d="M294.1 196.3v84.1H129.2v89.2h164.9v84.1H25.2V26.1h268.9v84.1H129.2v86h164.9z"/><path fill="#FFF" d="M47.1 432.3V47.1h225.8v41.7H129.2c-11.8 0-21.1 9.6-21.1 21.4v86c0 11.8 9.2 21 21.1 21h143.7V259H129.2c-11.8 0-21.1 9.5-21.1 21.3v89.2c0 11.8 9.2 21.1 21.1 21.1h143.7v41.7H47.1z" opacity=".5" filter="url(#a)"/><circle fill="#FFF" stroke="#000" stroke-miterlimit="10" cx="100.8" cy="59.7" r="22.3"/><circle cx="100.5" cy="61.6" r="7.6"/><circle fill="#FFF" stroke="#000" stroke-miterlimit="10" cx="211.1" cy="59.7" r="22.3"/><circle cx="210.7" cy="61.6" r="7.6"/><path fill="none" stroke="#1B1464" stroke-width="4.281" stroke-miterlimit="10" d="M74.7 216.1c47.7 19 59.3 31.4 81.8 31.4s44.9-12.8 82.1-31.4"/><path fill="none" stroke="#1B1464" stroke-width="3.21" stroke-miterlimit="10" d="M188.9 324.7c29.6 15.7 62.3 67.1 62.3 67.1m-111.4-67.1c-30 4.3-69.9 67.1-69.9 67.1"/><circle fill="none" stroke="#1B1464" stroke-width="3.21" stroke-miterlimit="10" cx="147.9" cy="320" r="11.6"/><circle fill="none" stroke="#1B1464" stroke-width="3.21" stroke-miterlimit="10" cx="181.1" cy="320" r="11.6"/></svg>