<svg xmlns="http://www.w3.org/2000/svg" width="320" height="402.8" viewBox="0 0 320 402.8"><filter id="a"><feGaussianBlur stdDeviation="7"/></filter><path fill="#600037" d="M173.1 373c-22.7 0-44.5-2.2-65-6.5-30.2-6.2-60.1-17.4-88.7-33.2-2.2-1.2-3.7-3.3-4.2-5.6-.5-2.4.1-4.9 1.6-6.8l39.6-51.6c1.6-2.1 4.1-3.3 6.6-3.3 1.3 0 2.6.3 3.8.9 18.1 9.2 34.2 15.9 48.1 20.1 13.4 4 27.7 6 42.2 6 18.8 0 33.1-3.9 42.5-11.6 6.7-5.5 10-11.4 10-18.1 0-10.8-4.4-18.5-13.8-23.9-10.7-6.1-28.4-9.3-52.5-9.3h-22.7c-4.6 0-8.8-3.6-8.8-8.2v-63.2c0-4.6 4.2-8.2 8.8-8.2h23.7c13.2 0 23.3-1.3 30.1-3.5l.1-.1c13.7-4.4 19.7-11.9 19.7-24.3 0-2.9-.7-7.3-6.7-12.4-6.4-5.4-15.8-8.1-27.9-8.1-14.9 0-29.5 2.2-43.4 6.4-14.4 4.4-31.8 11.5-51.9 21.2-1.2.6-2.4.8-3.7.8-3 0-6-1.6-7.5-4.4L21.2 65.6c-1.1-2-1.3-4.4-.5-6.6.8-2.2 2.4-3.9 4.4-5 27.5-12.8 54.6-21.7 80.7-26.7 19.1-3.6 39.3-5.5 60-5.5 43.2 0 76 10.5 97.5 31.3 17.4 16.5 26.2 37.5 26.2 62.3 0 18.5-5.6 35.3-16.7 49.9-6.6 8.7-14.6 15.8-23.8 21 11.2 4.4 21.2 10.8 29.7 19 17.4 16.4 26.3 37.5 26.3 62.9 0 27.6-10 51.2-29.6 70.2-23.7 22.9-58.1 34.6-102.3 34.6z" opacity=".3" filter="url(#a)"/><ellipse fill="#F15A24" stroke="#93278F" stroke-width="3.976" stroke-miterlimit="10" cx="148.7" cy="303.9" rx="67.5" ry="30.1"/><path fill="#FDFAED" stroke="#93278F" stroke-width="3.976" stroke-miterlimit="10" d="M198.7 222.1s-.2 22.3-10.7 21.2c-10.5-1.2-47.2-3.4-53.1-5.2-6-1.8-7.7-6.5-6.3-19.1 1.3-12.8 70.1 3.1 70.1 3.1z"/><circle fill="#FFF" stroke="#000" stroke-miterlimit="10" cx="193.2" cy="21.7" r="17.5"/><circle cx="187.1" cy="21.5" r="6"/><linearGradient id="b" gradientUnits="userSpaceOnUse" x1="221.596" y1="110.592" x2="241.739" y2="183.334" gradientTransform="matrix(1 0 0 -1 -96 416)"><stop offset="0" stop-color="#8600FF"/><stop offset="1" stop-color="#FF6CBA"/></linearGradient><path fill="url(#b)" d="M60.6 121.8L28.7 61.4c27-12.6 53.2-21.2 78.6-26.1 18.6-3.5 38.1-5.3 58.4-5.3 41.2 0 71.8 9.7 91.7 29 15.8 15.1 23.7 33.9 23.7 56.4 0 16.7-5 31.6-14.9 44.8-11.2 14.8-26.5 23.9-45.8 27.4 21.2 2.6 38.8 10.4 52.6 23.6 15.8 14.8 23.7 33.7 23.7 56.9 0 25.3-9 46.8-27 64.1-22.2 21.6-54.4 32.3-96.5 32.3-22.2 0-43.3-2.1-63.2-6.3-29.6-6.1-58.4-16.9-86.4-32.3l39.6-51.6c18.6 9.5 35.2 16.4 49.4 20.6 14.4 4.3 29.2 6.4 44.7 6.4 20.9 0 36.8-4.5 47.8-13.5 8.7-7.1 13-15.3 13-24.6 0-13.8-6-24.2-18.1-31.1-12.1-6.9-31-10.4-56.7-10.4h-22.7v-63.2h23.7c14.2 0 25.1-1.3 32.8-3.9 17-5.5 25.6-16.3 25.6-32.3 0-7.1-3.2-13.3-9.7-18.8-8.1-6.8-19.1-10.2-33.3-10.2-15.8 0-31.1 2.3-45.8 6.8-15 4.5-32.7 11.8-53.3 21.7z"/><path fill="#FFF" d="M173.1 347.8c-20.9 0-41-2-59.8-6-21.7-4.4-43.3-11.7-64.3-21.6l19-24.8c14.5 6.8 27.8 12.1 39.7 15.6 15.8 4.7 32.4 7.1 49.4 7.1 24.8 0 44.5-5.8 58.4-17.3 15.9-12.9 19.2-27.6 19.2-37.6 0-19.9-9.1-35.8-26.5-45.7-14.8-8.5-36.1-12.7-65-12.7h-6.4v-29.4h7.3c16.1 0 28.5-1.6 38-4.8 23.9-7.7 37.2-24.9 37.2-48.3 0-8.4-2.7-20.6-15.5-31.6l-.1-.1c-11.1-9.3-25.9-14.1-44.1-14.1-17.4 0-34.4 2.5-50.8 7.5-11.9 3.6-25.6 8.9-40.8 15.8L52.1 69.6c20.1-8.2 39.6-14.1 58.5-17.7 17.5-3.4 36.2-5 55.3-5 36.5 0 63.5 8.1 80.1 24.2 12.5 12 18.5 26.4 18.5 44.3 0 13.1-3.8 24.4-11.6 34.7-8.7 11.4-20.3 18.3-35.5 21.1-8.1 1.5-14 8.7-13.8 17 .3 8.3 6.5 15.2 14.8 16.2 17.7 2.2 31.8 8.4 43.1 19.1l.1.1c12.3 11.6 18.4 26.2 18.4 44.7 0 20.8-7.1 37.9-21.9 52-19.1 18.3-47.6 27.5-85 27.5z" opacity=".6" filter="url(#a)"/><circle fill="#FFF" stroke="#000" stroke-miterlimit="10" cx="229.8" cy="54.6" r="19.4"/><circle cx="222.8" cy="54.6" r="6.6"/><path fill="none" stroke="#93278F" stroke-width="3.976" stroke-miterlimit="10" d="M246.3 322.3c-23.6 46.5-19 63.7-91.5 67.6"/><circle fill="none" stroke="#93278F" stroke-width="3.976" stroke-miterlimit="10" cx="144.3" cy="389.2" r="10.7"/></svg>