<svg xmlns="http://www.w3.org/2000/svg" width="320" height="405.3" viewBox="0 0 320 405.3"><filter id="a"><feGaussianBlur stdDeviation="7"/></filter><path fill="none" stroke="#2F3D3F" stroke-width="3.024" stroke-miterlimit="10" d="M51.8 348.7c24.8-17.7 59.8-37.4 101.7-39"/><path fill="#015056" d="M260.7 390.3c-16.6 0-31.7-5.6-44.9-16.5l-.1-.1c-16.8-14.2-29.1-35.8-36.4-64-8.3-32.1-12.6-44.2-14.8-48.4-8.3-16.7-19.7-24.9-34.6-24.9h-13.3v147.3H15V22.3h101.6v129h6c15 0 25.8-3.9 32.9-11.7 5.5-5.9 14.3-20.2 25.3-54.8 8.1-26.5 20.4-45.8 36.4-57.3 11.9-8.3 26-12.5 41.9-12.5 8.6 0 15.8.6 21.9 2 6 1.4 12.4 3.8 19.1 7.1l4.8 2.6v88.2l-12.1-4.4c-3.3-1.2-6-2-8.4-2.5-2.4-.5-4.8-.8-7.3-1.1-1 .5-5.9 3.9-12.8 22.7-10.1 27.4-11.3 30.6-11.9 31.6-4.6 10.2-9.8 18.3-15.7 24.2l-.1.1c-4.6 4.3-9.7 8-15.4 10.8 11.7 5.7 20.6 13.7 26.7 24.2 2.2 3.7 6.1 12.4 16.4 46.8 3.6 12 6 17.7 7.5 20.4 3.8 7.2 8.6 10.5 15.7 10.6l17.5-1.1v84.7l-6.3 2c-4.8 1.5-10.5 2.8-17.7 4.3-7.5 1.3-14.3 2.1-20.3 2.1z" opacity=".4" filter="url(#a)"/><path fill="#B9D7DE" stroke="#000" stroke-width=".915" stroke-miterlimit="10" d="M23.7 374.4v-343h83.4v128.8h15.5c17.5 0 30.7-4.8 39.7-14.5 9-9.6 18-29 27.3-58.2 7.6-24.7 18.6-42.3 32.9-52.5 10.3-7.2 22.5-10.8 36.6-10.8 7.9 0 14.5.6 19.9 1.8 5.3 1.2 11.1 3.4 17.3 6.4V102c-3.8-1.4-7.1-2.3-10.1-2.8-2.9-.5-5.9-.9-9.1-1.3-7.2 0-14.4 9.6-21.4 28.8-7 19.2-10.9 29.5-11.6 30.8-4.1 9.2-8.8 16.5-13.9 21.6-8.2 7.9-18.8 12.9-31.4 14.9v4.7c19.6 4.1 33.3 13 41.2 26.7 2.7 4.5 7.9 19.4 15.5 44.7 3.1 10.2 5.9 17.7 8.2 22.1 5.5 10.2 13.5 15.4 24.2 15.4l8.2-.5v68.1c-4.5 1.4-10.2 2.7-17 4-6.9 1.4-13.1 2-18.6 2-14.5 0-27.4-4.8-39.2-14.4-15.5-13-26.6-32.8-33.5-59.3-6.9-26.5-12-43.2-15.5-50-10-19.9-24.2-29.8-42.7-29.8H107v146.8l-83.3-.1z"/><path fill="#FFF" d="M260.7 362.8c-10.2 0-19.1-3.3-27.4-10.2-12.4-10.4-21.6-27.3-27.4-49.8-9.7-37.3-14.3-48.7-16.8-53.9-16.6-32.9-41.3-40.1-59.1-40.1H89.1v147.3H42.4V49.7h46.7v129h33.5c22.7 0 40.6-7 53.1-20.4 11.1-11.9 21-32.7 31.4-65.2l.1-.3c6.3-20.6 15.1-35.1 26.1-43 7.2-5 15.7-7.5 26-7.5 6.5 0 11.6.5 15.6 1.4.9.2 1.9.5 2.8.8V79h-.4c-23.6 0-34.5 29.8-38.5 41-8.2 22.6-10.4 28.1-11 29.4l-.2.5c-3.1 7-6.5 12.4-10 15.9-5.5 5.2-12.5 8.5-21.5 10l-15.4 2.5v35l14.5 3c14.4 3 23.9 8.9 29.1 17.9l.2.4c.6 1.1 3.8 7.9 13.5 40.4 3.6 11.8 6.4 19.9 9.5 25.6 6.9 12.9 17.3 21.1 30.1 24v36c0 .2-1.3.3-2.1.5-5.7 1.2-10.5 1.7-14.8 1.7z" opacity=".5" filter="url(#a)"/><path fill="none" stroke="#2F3D3F" stroke-width="3.66" stroke-miterlimit="10" d="M199.3 194.7c-40.2 15.2-79.9 18-110.7 7m-2.8-17c1.7 8.8 3.3 19.6-3.7 24.4"/><circle fill="#FFF" stroke="#000" stroke-width="1.006" stroke-miterlimit="10" cx="60.9" cy="73.5" r="23.2"/><circle cx="66" cy="75.5" r="8"/><path fill="none" stroke="#2F3D3F" stroke-width="3.66" stroke-miterlimit="10" d="M60.9 330.4c24.8 25.8 59.8 54.8 101.7 57.1"/><circle fill="none" stroke="#2F3D3F" stroke-width="3.66" stroke-miterlimit="10" cx="170.2" cy="388.1" r="10.2"/><circle fill="none" stroke="#2F3D3F" stroke-width="3.124" stroke-miterlimit="10" cx="161.4" cy="307.8" r="8.7"/></svg>