<svg xmlns="http://www.w3.org/2000/svg" width="320" height="370.3" viewBox="0 0 320 370.3"><filter id="a"><feGaussianBlur stdDeviation="7"/></filter><path fill="#03296D" d="M67.6 355.8c-11.4 0-21.9-1.5-31.1-4.4h-.1c-3.1-1.1-8.7-3.4-16.8-7.1-2.9-1.3-4.8-4.2-4.8-7.4v-60.2c0-2.7 1.5-5.3 3.7-6.8 1.4-.9 2.9-1.3 4.5-1.3 1.1 0 2.2.2 3.2.6 3.4 1.5 8 2.7 13.7 3.7 7.4 1.3 11 1.5 12.7 1.5 9.6 0 11.5-4.1 12.2-5.9.7-1.8 1.7-5.5 1.7-12.8V38.5c0-4.4 3.5-8.1 7.9-8.1h222.2c4.4 0 8.4 3.6 8.4 8.1v303.3c0 4.4-4 8.1-8.4 8.1H223c-4.4 0-8.4-3.6-8.4-8.1V106.5h-58.2v164.9c0 34-11.2 58.2-33.4 71.9-13.9 8.3-32.4 12.5-55.4 12.5z" opacity=".3" filter="url(#a)"/><path d="M173.6 111.9c0 1.7-1.4 3.1-3.1 3.1h-14.8c-1.7 0-3.1-1.4-3.1-3.1V97.1c0-1.7 1.4-3.1 3.1-3.1h14.8c1.7 0 3.1 1.4 3.1 3.1v14.8zm23.5 0c0 1.7-1.4 3.1-3.1 3.1h-14.8c-1.7 0-3.1-1.4-3.1-3.1V97.1c0-1.7 1.4-3.1 3.1-3.1H194c1.7 0 3.1 1.4 3.1 3.1v14.8zm23.5 0c0 1.7-1.4 3.1-3.1 3.1h-14.8c-1.7 0-3.1-1.4-3.1-3.1V97.1c0-1.7 1.4-3.1 3.1-3.1h14.8c1.7 0 3.1 1.4 3.1 3.1v14.8z" fill="#FFEEDE" stroke="#D3C79E" stroke-width=".809" stroke-miterlimit="10"/><linearGradient id="b" gradientUnits="userSpaceOnUse" x1="255.818" y1="147.127" x2="255.818" y2="260.344" gradientTransform="matrix(1 0 0 -1 -96 416)"><stop offset="0" stop-color="#0085FF"/><stop offset="1" stop-color="#3CF"/></linearGradient><path fill="url(#b)" d="M222.9 98.2h-74.6v173.2c0 31.2-9.9 52.9-29.6 65-12.5 7.6-29.4 11.4-51 11.4-10.6 0-20.2-1.4-28.7-4-2.7-.9-8.1-3.2-15.9-6.8v-60.2c4 1.7 9.1 3.1 15.4 4.2 6.4 1.1 11.1 1.7 14.2 1.7 10 0 16.6-3.6 19.6-10.9 1.5-3.6 2.3-9 2.3-15.9V38.5h222.2v303.3H223l-.1-243.6z"/><path fill="#FFF" d="M67.6 331.5c-8.8 0-16.9-1.1-23.8-3.2-.6-.2-1.6-.7-4.9-1.9v-29c5.7.9 10.1 1.4 13.5 1.4 9.6 0 27-2.7 34.6-20.9 2.3-5.7 3.6-12.9 3.6-22.2v-201h190.1v270.9h-42.1V98.2c0-8.9-7-16-15.9-16h-74.6c-8.9 0-16.3 7-16.3 16v173.2c0 25.4-7.1 42.1-21.8 51.2-9.6 5.9-23.9 8.9-42.4 8.9z" opacity=".5" filter="url(#a)"/><circle fill="#FFF" stroke="#000" stroke-width=".889" stroke-miterlimit="10" cx="116.8" cy="21.5" r="20.5"/><circle cx="121.2" cy="23.2" r="7"/><circle fill="#FFF" stroke="#000" stroke-width=".889" stroke-miterlimit="10" cx="258.3" cy="21.5" r="20.5"/><circle cx="254" cy="23.2" r="7"/><path fill="none" stroke="#0F1B35" stroke-width="3.235" stroke-miterlimit="10" d="M74.4 196.2c-7.9 11.3-60.3 25.8-33 41.7s68 26.3 68 26.3m144.6-68s47.6 48.9 24.9 59.8c-22.7 10.8-81.8-4.1-81.8-4.1"/><circle fill="none" stroke="#0F1B35" stroke-width="3.235" stroke-miterlimit="10" cx="190.1" cy="251.5" r="8.4"/><circle fill="none" stroke="#0F1B35" stroke-width="3.235" stroke-miterlimit="10" cx="115.8" cy="266.6" r="9"/></svg>