<svg xmlns="http://www.w3.org/2000/svg" width="320" height="265" viewBox="0 0 320 265"><filter id="a"><feGaussianBlur stdDeviation="7"/></filter><path fill="#5E0000" d="M245.7 250.6c-2.7 0-5.1-1.9-5.7-4.5l-19.5-85.2-51.8 86.9c-1.1 1.7-3 2.9-5 2.9h-7.3c-2 0-3.9-1.1-5-2.8l-52.1-87-19.2 85.2c-.6 2.7-3 4.5-5.7 4.5H20.8c-1.8 0-3.5-.8-4.5-2.2-1.1-1.4-1.5-3.2-1.1-4.9l51.7-224c.6-2.7 3-4.5 5.7-4.5h6.9c2.1 0 4 1.1 5.1 3l75.6 132.4L235.8 18c1.1-1.8 3-3 5.1-3h6.9c2.7 0 5.1 1.9 5.7 4.5l51.7 223.9c.4 1.7 0 3.6-1.1 4.9-1.1 1.4-2.8 2.2-4.5 2.2l-53.9.1z" opacity=".3" filter="url(#a)"/><linearGradient id="b" gradientUnits="userSpaceOnUse" x1="306.116" y1="115.784" x2="306.116" y2="200.222" gradientTransform="matrix(1 0 0 -1 -146 356)"><stop offset="0" stop-color="#7E0000"/><stop offset=".97" stop-color="#FF0E3D"/></linearGradient><path fill="url(#b)" d="M160.1 162.1l80.7-141.2h6.9l51.7 223.9h-53.6L223 145.4l-59.3 99.4h-7.3l-59.6-99.4-22.4 99.4H20.8L72.5 20.9h6.9l80.7 141.2z"/><path fill="#FFF" d="M255.1 233.2l-20.6-90.4c-1.1-4.6-4.8-8.3-9.5-8.9-.6-.1-1.2-.2-1.8-.2-4.1 0-7.9 2.1-10.1 5.7l-52.9 88.7-53.2-88.7c-2.1-3.6-6-5.7-10-5.7-.6 0-1.2.1-1.9.2-4.7.8-8.5 4.4-9.5 9l-20.3 90.4H35.5L79.2 44.1 150 168c2 3.6 6 5.9 10.2 5.9s8.1-2.3 10.2-5.9L241 44.1l43.6 189.1h-29.5z" opacity=".5" filter="url(#a)"/><circle fill="#FFF" stroke="#000" stroke-miterlimit="10" cx="81.5" cy="70.6" r="15"/><circle cx="84.3" cy="72.6" r="5.2"/><circle fill="#FFF" stroke="#000" stroke-miterlimit="10" cx="236.9" cy="70.6" r="15"/><circle cx="234.1" cy="72.6" r="5.2"/><path fill="none" stroke="#B9D7DE" stroke-width="5" stroke-miterlimit="10" d="M51.1 203.1s28.4 34 46.8 25.1 17.3-17.9 17.3-17.9m149.8.3s-16.7 26.7-42.4 28.4c-25.7 1.7-17.3-5-13.9-12.3"/><circle fill="none" stroke="#B9D7DE" stroke-width="5" stroke-miterlimit="10" cx="211.6" cy="224.7" r="5.8"/><circle fill="none" stroke="#B9D7DE" stroke-width="5" stroke-miterlimit="10" cx="116.8" cy="207.2" r="5.8"/></svg>