<svg xmlns="http://www.w3.org/2000/svg" width="320" height="365" viewBox="0 0 320 365"><filter id="a"><feGaussianBlur stdDeviation="7"/></filter><path fill="#93278F" d="M219.3 350.9c-4.7 0-8.7-3.7-8.7-8.5V215.7H110.2v126.7c0 4.7-4.1 8.5-8.8 8.5H23.9c-4.7 0-8.8-3.7-8.8-8.5V23.5c0-4.7 4.2-8.5 8.8-8.5h77.5c4.7 0 8.8 3.8 8.8 8.5v112.2h100.3V23.5c0-4.7 3.9-8.5 8.7-8.5h77.5c4.7 0 8.2 3.8 8.2 8.5v318.9c0 4.7-3.5 8.5-8.2 8.5h-77.4z" opacity=".3" filter="url(#a)"/><linearGradient id="b" gradientUnits="userSpaceOnUse" x1="256.29" y1="93.788" x2="256.29" y2="229.57" gradientTransform="matrix(1 0 0 -1 -96 416)"><stop offset="0" stop-color="#FF0057"/><stop offset="1" stop-color="#FF6CBA"/></linearGradient><path fill="url(#b)" d="M101.4 206.9v135.5H23.9V23.5h77.5v120.7h117.8V23.5h77.5v318.9h-77.5V206.9H101.4z"/><path fill="#FFF" d="M236.1 325.3V206.9c0-9.4-7.5-16.8-16.8-16.8H101.4c-9.4 0-16.7 7.3-16.7 16.8v118.4H40.5V40.5h44.2v103.7c0 9.4 7.3 17.1 16.7 17.1h117.8c9.4 0 16.8-7.7 16.8-17.1V40.5h43.4v284.9h-43.3z" opacity=".5" filter="url(#a)"/><circle fill="#FFF" stroke="#000" stroke-width="1.413" stroke-miterlimit="10" cx="63.5" cy="60" r="23.8"/><circle cx="63.5" cy="60" r="5.8"/><circle fill="#FFF" stroke="#000" stroke-width="1.275" stroke-miterlimit="10" cx="260.8" cy="60" r="21.5"/><circle cx="260.8" cy="60" r="7.4"/><path fill="none" stroke="#FF0E3D" stroke-width="4.252" stroke-miterlimit="10" d="M72.1 147.7s30.8 39.6 90.1 39.6 82.1-40.3 82.1-40.3m8.6-2.9c-8.2 3.5-11.3.6-10.4-8.2M75 137.8c-2.6 10.6-2.8 10.4-11 9.1"/><path fill="none" stroke="#8ED33A" stroke-width="4.252" stroke-miterlimit="10" d="M242.1 240.8c-1.4 45.4-52.8 78.4-52.8 78.4M72.8 240.1s24.9 72.5 41.8 85.8"/><circle fill="none" stroke="#8ED33A" stroke-width="4.252" stroke-miterlimit="10" cx="184.2" cy="323.6" r="7.3"/><circle fill="none" stroke="#8ED33A" stroke-width="4.252" stroke-miterlimit="10" cx="120.7" cy="327.3" r="8.4"/></svg>