<svg xmlns="http://www.w3.org/2000/svg" width="320" height="310.4" viewBox="0 0 320 310.4"><filter id="a"><feGaussianBlur stdDeviation="7"/></filter><path fill="none" stroke="#0071BC" stroke-width="3.336" stroke-miterlimit="10" d="M233.3 255.3s38.1 16.6 56.8 11.8"/><ellipse fill="none" stroke="#0071BC" stroke-width="3.336" stroke-miterlimit="10" cx="297.5" cy="267" rx="7.5" ry="9.8"/><path fill="none" stroke="#0071BC" stroke-width="2.994" stroke-miterlimit="10" d="M93 258.9c-34.9 9.3-37.9 15.5-58.4 11.7"/><ellipse fill="none" stroke="#0071BC" stroke-width="2.994" stroke-miterlimit="10" cx="25.1" cy="273.3" rx="10.3" ry="10.5"/><path fill="#003854" d="M160.6 295.7c-42.6 0-78.3-14.8-106.3-44.1-26.1-27-39.3-59.5-39.3-96.2 0-37.4 13.7-70.2 40.5-97.5C83.4 29.4 118.8 15 160.6 15c41.3 0 76.2 14.3 103.9 42.5 26.8 27.4 40.5 60.3 40.5 97.9s-13.5 70.5-40.1 97.5c-27.9 28.4-63 42.8-104.3 42.8zm-.4-216.6c-20.2 0-36.3 7.1-49.2 21.9-13.1 15-19.5 32.9-19.5 54.7 0 22.1 6.3 39.9 19.3 54.5 12.7 14.3 28.9 21.4 49.4 21.4s36.6-6.9 49.2-21.2c12.8-14.5 19.1-32.4 19.1-54.7 0-21.8-6.3-39.7-19.3-54.8-12.8-14.6-28.8-21.8-49-21.8z" opacity=".3" filter="url(#a)"/><path fill="#F7931E" stroke="#ED1C24" stroke-width="3.034" stroke-miterlimit="10" d="M160.2 72.3c-22.1 0-40.2 8-54.4 24.2-14.1 16.2-21.2 35.9-21.2 59.2 0 23.6 7 43.2 21 59 14 15.8 32.2 23.7 54.5 23.7s40.5-7.8 54.4-23.4c13.9-15.6 20.8-35.3 20.8-59.2 0-23.4-7-43.1-21-59.2-13.9-16.2-32-24.3-54.1-24.3zm43 132.6c-10.9 12.4-25 18.4-43 18.4s-32.1-6.1-43.2-18.6c-11.5-13-17.1-29-17.1-48.9 0-19.7 5.7-35.8 17.4-49.2 11.2-12.8 25.3-19 42.9-19 17.7 0 31.6 6.2 42.7 19 11.6 13.4 17.3 29.6 17.3 49.3 0 20.1-5.6 36.2-17 49z"/><path fill="#3CF" d="M21.8 155.4c0-35.6 12.8-66.6 38.5-92.8C87 35.4 120.4 21.8 160.5 21.8c39.6 0 72.6 13.5 99 40.4 25.7 26.2 38.5 57.3 38.5 93.1 0 35.9-12.7 66.8-38.1 92.8-26.7 27.2-59.8 40.8-99.4 40.8-40.9 0-74.6-14-101.4-41.9-24.8-26-37.3-56.5-37.3-91.6zm62.8.3c0 23.6 7 43.2 21 59s32.2 23.7 54.5 23.7 40.5-7.8 54.4-23.4c13.9-15.6 20.8-35.3 20.8-59.2 0-23.4-7-43.1-21-59.2s-32.1-24.2-54.2-24.2-40.2 8-54.4 24.2c-13.9 16.1-21.1 35.9-21.1 59.1z"/><path fill="#FFF" d="M160.6 275.3c-37.3 0-67.2-12.4-91.5-37.7-22.7-23.6-33.6-50.4-33.6-82.2 0-32.2 11.3-59.5 34.6-83.2 24.3-24.7 53.8-36.7 90.4-36.7 36.1 0 65.3 11.9 89.3 36.3 23.3 23.7 34.6 51 34.6 83.6 0 32.5-11.2 59.7-34.2 83.2-24.2 24.6-53.5 36.7-89.6 36.7zm-.4-216.6c-26.1 0-47.9 9.7-64.6 28.9C79.3 106.3 71 129.2 71 155.9c0 26.9 8.3 49.8 24.5 68.1 16.6 18.7 38.5 28.2 64.8 28.2 26.3 0 48.1-9.4 64.6-28.1 16.1-18.1 24.3-41.1 24.3-68.3 0-26.6-8.2-49.5-24.3-68.2-16.9-19.2-38.6-28.9-64.7-28.9z" opacity=".5" filter="url(#a)"/><circle fill="#FFF" stroke="#000" stroke-miterlimit="10" cx="104.4" cy="61.8" r="22.5"/><circle cx="103.5" cy="56" r="7.7"/><circle fill="#FFF" stroke="#000" stroke-miterlimit="10" cx="214.7" cy="61.8" r="22.5"/><circle cx="218.8" cy="56" r="7.7"/></svg>