<svg xmlns="http://www.w3.org/2000/svg" width="320" height="371.6" viewBox="0 0 320 371.6"><filter id="a"><feGaussianBlur stdDeviation="7"/></filter><path fill="#420351" d="M217.3 356.7c-4.8 0-8.6-3.8-8.6-8.7V96.3h-96.9V348c0 4.8-4.2 8.7-9 8.7H24c-4.8 0-9-3.8-9-8.7V23.6c0-4.8 4.2-8.7 9-8.7h272.3c4.8 0 8.5 3.9 8.5 8.7V348c0 4.8-3.7 8.7-8.5 8.7h-79z" opacity=".3" filter="url(#a)"/><path d="M137.4 103.8c0 1.8-1.5 3.3-3.3 3.3h-15.8c-1.8 0-3.3-1.5-3.3-3.3V88c0-1.8 1.5-3.3 3.3-3.3h15.8c1.8 0 3.3 1.5 3.3 3.3v15.8zm37.2 2.5c0 2.3-1.9 4.2-4.2 4.2h-20.8c-2.3 0-4.2-1.9-4.2-4.2V85.5c0-2.3 1.9-4.2 4.2-4.2h20.8c2.3 0 4.2 1.9 4.2 4.2v20.8zm30.3-2.5c0 1.8-1.5 3.3-3.3 3.3h-15.8c-1.8 0-3.3-1.5-3.3-3.3V88c0-1.8 1.5-3.3 3.3-3.3h15.8c1.8 0 3.3 1.5 3.3 3.3v15.8z" fill="#FFEEDE" stroke="#D3C79E" stroke-width=".865" stroke-miterlimit="10"/><linearGradient id="b" gradientUnits="userSpaceOnUse" x1="552.15" y1="256.504" x2="552.15" y2="71.382" gradientTransform="translate(-392 50)"><stop offset="0" stop-color="#FF6C6A"/><stop offset="1" stop-color="#FF6CBA"/></linearGradient><path fill="url(#b)" d="M102.9 87.5V348H24V23.6h272.3V348h-78.9V87.5H102.9z"/><path fill="#FFF" d="M234.7 330.7V87.5c0-9.5-7.8-17.1-17.4-17.1H102.9c-9.5 0-17 7.5-17 17.1v243.3H41V40.9h237.9v289.8h-44.2z" opacity=".5" filter="url(#a)"/><circle fill="#FFF" stroke="#000" stroke-miterlimit="10" cx="68.8" cy="62.5" r="25.7"/><circle cx="68.8" cy="62.9" r="8.8"/><circle fill="#FFF" stroke="#000" stroke-miterlimit="10" cx="254.8" cy="62.5" r="25.7"/><circle cx="254.8" cy="62.9" r="8.8"/><path fill="none" stroke="#BA0000" stroke-width="3.46" stroke-miterlimit="10" d="M64.3 212.2s-39.8 34.6-27.7 54.5 28.5 13 28.5 13m191.3-65.8s30.3 41.5 21.6 55.4c-8.7 13.8-26.8 8.7-34.6 5.2"/><circle fill="none" stroke="#BA0000" stroke-width="3.46" stroke-miterlimit="10" cx="73.1" cy="277.6" r="9.3"/><circle fill="none" stroke="#BA0000" stroke-width="3.46" stroke-miterlimit="10" cx="236.3" cy="272.2" r="8.3"/></svg>