<svg xmlns="http://www.w3.org/2000/svg" width="320" height="430.7" viewBox="0 0 320 430.7"><filter id="a"><feGaussianBlur stdDeviation="7"/></filter><path fill="#893C02" d="M25.6 415.3c-5.6 0-10.5-4.5-10.5-10.1v-380c0-5.6 5-10.1 10.5-10.1h123.2c52.2 0 92.7 15.3 120.5 45.5 23 25 34.7 56.9 34.7 94.7 0 41.6-12.6 76.4-37.5 103.7-28.2 30.6-67.7 45.9-117.6 45.9h-20.3v100.3c0 5.6-4.9 10.1-10.4 10.1H25.6zM142 210.7c17.9 0 26.9-3.4 31.2-6.1 11.6-7.1 17.4-22.4 17.4-45.1 0-20-5.1-33.6-15.1-40.7-7.8-5.6-19-8.3-33.5-8.3h-13.5v100.3H142v-.1z" opacity=".3" filter="url(#a)"/><path fill="#FDFAED" stroke="#93278F" stroke-width="3.93" stroke-miterlimit="10" d="M113.4 126.8s22-2.2 22 8.2 1.6 46.7.5 52.7c-1.1 6.1-5.5 8.2-18.1 8.2-12.7.2-4.4-69.1-4.4-69.1z"/><radialGradient id="b" cx="473.58" cy="106.873" r="182.667" gradientTransform="translate(-392 50)" gradientUnits="userSpaceOnUse"><stop offset="0" stop-color="#FFD100"/><stop offset="1" stop-color="#FF7C0F"/></radialGradient><path fill="url(#b)" d="M118.1 295.2v110H25.6v-380h123.2c49.4 0 87.1 14.1 113 42.3 21.3 23.2 31.9 52.5 31.9 87.8 0 39.2-11.7 71.5-34.8 97-26.2 28.6-62.9 42.8-110.1 42.8h-30.7v.1zm0-74.8h24c16.3 0 28.6-2.4 36.5-7.4 14.8-9.1 22.3-27 22.3-53.6 0-23.6-6.5-39.9-19.4-49-9.5-6.9-22.6-10.2-39.4-10.2h-24v120.2z"/><path fill="#FFF" d="M45.4 384.9V45.5h103.4c43.9 0 76 11.7 98.1 35.7 17.9 19.5 26.6 43.8 26.6 74.2 0 34.2-9.6 61.3-29.5 83.2-22.4 24.3-53.6 36.1-95.1 36.1h-30.8c-11.1 0-20 9.4-20 20.7v89.7H45.4v-.2zm72.7-305c-11.1 0-20 8.8-20 20.1v120.4c0 11.1 8.7 20.7 20 20.7h24c20.4 0 35.9-3.6 47.2-10.6 21.1-13 31.8-37 31.8-70.9 0-30.4-9.4-52.4-27.9-65.5-13.1-9.4-30.3-14.1-51.3-14.1l-23.8-.1z" opacity=".5" filter="url(#a)"/><circle fill="#FFF" stroke="#000" stroke-miterlimit="10" cx="72" cy="97.1" r="30.1"/><circle cx="72" cy="97.6" r="10.3"/><circle fill="#FFF" stroke="#000" stroke-miterlimit="10" cx="72" cy="218.7" r="30.1"/><circle cx="72" cy="219.2" r="10.3"/><path d="M185.6 148.1s44-19.9 50.2-.1c6.2 19.9-45.3 26.3-45.3 26.3l-4.9-26.2zm2.4 13.5l47.9-12.9" fill="none" stroke="#93278F" stroke-width="4.551" stroke-miterlimit="10"/><path fill="none" stroke="#93278F" stroke-width="4.887" stroke-miterlimit="10" d="M214.3 240.9c41.3 50.7 41.3 49.7 75.6 0M226.4 71.4c47.3-56.7 40.7-57.7 66.9.9"/><circle fill="none" stroke="#93278F" stroke-width="4.887" stroke-miterlimit="10" cx="300.3" cy="71.4" r="9.2"/><circle fill="none" stroke="#93278F" stroke-width="4.887" stroke-miterlimit="10" cx="301.7" cy="241.3" r="11.3"/></svg>