<svg xmlns="http://www.w3.org/2000/svg" width="320" height="427.9" viewBox="0 0 320 427.9"><filter id="a"><feGaussianBlur stdDeviation="7"/></filter><path fill="#660202" d="M113.9 410c-5.5 0-9.9-4.4-9.9-10V109H37.9c-5.5 0-9.9-4.7-9.9-10.2V25c0-5.5 4.4-10 9.9-10h242.7c5.5 0 10.4 4.5 10.4 10v73.8c0 5.5-4.9 10.2-10.4 10.2H215v291c0 5.5-4.3 10-9.9 10h-91.2z" opacity=".3" filter="url(#a)"/><linearGradient id="b" gradientUnits="userSpaceOnUse" x1="255.25" y1="60.292" x2="255.25" y2="283.46" gradientTransform="matrix(1 0 0 -1 -96 416)"><stop offset=".315" stop-color="#FF8000"/><stop offset=".341" stop-color="#FF7804"/><stop offset=".478" stop-color="#FF5219"/><stop offset=".614" stop-color="#FF3428"/><stop offset=".748" stop-color="#FF1F34"/><stop offset=".878" stop-color="#FF123B"/><stop offset="1" stop-color="#FF0E3D"/></linearGradient><path fill="url(#b)" d="M113.9 400V98.8h-76V25h242.7v73.8h-75.5V400h-91.2z"/><path fill="#FFF" d="M134 380V98.8c0-11-9-19.8-20.1-19.8H58V45h203v34h-55.9c-11 0-20.1 8.7-20.1 19.8V380h-51z" opacity=".5" filter="url(#a)"/><path d="M100.5 50.4c14.1 4.7 20.3 17 13.9 27.3s-23 15-37.1 10.2c-14.1-4.7-20.3-17-13.9-27.3s23-14.9 37.1-10.2zM59.9 69.7c-4.6 1.5 49.7-2.3 56.4 0" fill="#FFF" stroke="#000" stroke-width=".808" stroke-miterlimit="10"/><circle fill="#FFF" stroke="#000" stroke-width="1.01" stroke-miterlimit="10" cx="228.5" cy="65.5" r="30"/><circle cx="228.5" cy="66" r="10.3"/><path fill="none" stroke="#C1272D" stroke-width="4" stroke-miterlimit="10" d="M123.5 230.8c-38.8-6-84.5-16.4-86.2-81m153.5 78.4s64.7 33.6 63.8 51.7-42.2 27.6-42.2 27.6"/><circle fill="none" stroke="#C1272D" stroke-width="4" stroke-miterlimit="10" cx="38.6" cy="140.7" r="14.2"/><ellipse fill="none" stroke="#C1272D" stroke-width="4" stroke-miterlimit="10" cx="207.3" cy="307.1" rx="4.3" ry="14.2"/></svg>