<svg xmlns="http://www.w3.org/2000/svg" width="320" height="351.2" viewBox="0 0 320 351.2"><filter id="a"><feGaussianBlur stdDeviation="7"/></filter><path fill="#00456B" d="M222.6 336.6c-2.8 0-5.4-1.4-6.8-3.7l-55.9-87.4-55.5 87.4c-1.5 2.4-4.1 3.7-6.8 3.7H23.2c-2.9 0-5.7-1.6-7.2-4.2s-1.3-5.8.2-8.3l96.7-152L21.8 27.4c-1.5-2.5-1.7-5.7-.2-8.3 1.4-2.5 4.2-4.2 7.1-4.2H103c2.8 0 5.4 1.5 6.9 3.8l49.9 79 49.5-78.9c1.5-2.4 4.1-3.8 6.9-3.8H291c2.9 0 5.7 1.6 7.2 4.2s1.3 5.8-.2 8.3L206.7 172l97.1 152c1.6 2.5 1.7 5.7.2 8.3-1.5 2.6-4.2 4.2-7.2 4.2l-74.2.1z" opacity=".3" filter="url(#a)"/><linearGradient id="b" gradientUnits="userSpaceOnUse" x1="352.08" y1="459.173" x2="352.08" y2="327.897" gradientTransform="translate(-192 -171)"><stop offset="0" stop-color="#FFD700"/><stop offset=".152" stop-color="#EDD739"/><stop offset=".306" stop-color="#DDD76A"/><stop offset=".459" stop-color="#D0D794"/><stop offset=".608" stop-color="#C6D7B4"/><stop offset=".75" stop-color="#BFD7CB"/><stop offset=".884" stop-color="#BAD7D9"/><stop offset="1" stop-color="#B9D7DE"/></linearGradient><path fill="url(#b)" stroke="#025A68" stroke-width="1.629" stroke-miterlimit="10" d="M159.8 230.4l-62.4 98.1H23.2l99.5-156.4-94.1-149h74.3l56.8 89.9 56.4-89.9h74.8l-94 149 100 156.4h-74.3l-62.8-98.1z"/><path fill="#FFF" d="M231.6 312.2l-58-90.4c-3-4.6-8.1-7.3-13.7-7.3-5.5 0-10.7 2.7-13.7 7.3l-57.6 90.4H52.8l83.6-131.4c3.4-5.3 3.4-12.1 0-17.4l-78.2-124H94l52 82.2c3 4.7 8.1 7.4 13.8 7.4 5.6 0 10.8-2.8 13.8-7.5l51.7-82.1h36.2l-78.3 124c-3.3 5.4-3.3 12.1.1 17.4l83.9 131.4h-35.6z" opacity=".5" filter="url(#a)"/><circle fill="#FFF" stroke="#025A68" stroke-width=".814" stroke-miterlimit="10" cx="232.1" cy="56.3" r="21.8"/><circle fill="#FFF" stroke="#025A68" stroke-width=".814" stroke-miterlimit="10" cx="89.1" cy="56.3" r="21.8"/><circle cx="236.1" cy="63.4" r="7.5"/><circle cx="93.1" cy="51.4" r="11.1"/><path fill="none" stroke="#025A68" stroke-width="4.072" stroke-miterlimit="10" d="M215.6 140.7s33 12 31.6 26c-1.4 14-40 18.2-40 18.2M99.3 141S60 155 64.2 169.1c4.2 14 46.3 12.5 51.2 13.3"/></svg>