<svg xmlns="http://www.w3.org/2000/svg" width="320" height="395.5" viewBox="0 0 320 395.5"><filter id="a"><feGaussianBlur stdDeviation="7"/></filter><path fill="#720707" d="M232.1 362.5c-3.9 0-7-3-7-7V300H21.7c-3.9 0-6.7-3.6-6.7-7.5V22.2c0-3.9 2.8-7.2 6.7-7.2h65.8c3.9 0 7.3 3.2 7.3 7.2v210H177v-210c0-3.9 3.2-7.2 7.3-7.2H250c3.9 0 6.8 3.2 6.8 7.2v210H298c3.9 0 7 3.2 7 7.2v116.1c0 3.9-3.1 7-7 7h-65.9z" opacity=".3" filter="url(#a)"/><linearGradient id="b" gradientUnits="userSpaceOnUse" x1="551.85" y1="230.923" x2="551.85" y2="110.852" gradientTransform="translate(-392 50)"><stop offset="0" stop-color="#9E0000"/><stop offset="1" stop-color="#FF0E3D"/></linearGradient><path fill="url(#b)" d="M184.2 239.4V22.2H250v217.2h48v116.1h-65.8v-63H21.7V22.2h65.8v217.2h96.7z"/><path fill="#FFF" d="M246.5 341.2v-48.6c0-8-6.4-14.6-14.4-14.6H36.3V36.3h36.3v203.1c0 8 6.9 14.1 14.9 14.1h96.6c8 0 14.1-6.2 14.1-14.1V36.3h37.1v203.1c0 8 6.6 14.1 14.5 14.1h33.7v87.7h-37z" opacity=".5" filter="url(#a)"/><circle fill="#FFF" stroke="#000" stroke-miterlimit="10" cx="53.1" cy="56.9" r="20.7"/><circle cx="53.1" cy="56.9" r="7.1"/><circle fill="#FFF" stroke="#000" stroke-miterlimit="10" cx="217.8" cy="56.9" r="16.8"/><circle cx="217.8" cy="56.9" r="4.8"/><path fill="none" stroke="#FFF" stroke-width="3.95" stroke-miterlimit="10" d="M51.1 243c28.9 25.8 138.5 24.7 167.9-3.7m-164.3-.8l-7.9 9.5M216 234.1l8.4 9.4"/></svg>