<svg xmlns="http://www.w3.org/2000/svg" width="320" height="258" viewBox="0 0 320 258"><filter id="a"><feGaussianBlur stdDeviation="7"/></filter><path fill="none" stroke="#0A350F" stroke-width="2.207" stroke-miterlimit="10" d="M174.8 149.1c14.7 3.5 20.6 59.4 37.7 61.8"/><circle fill="none" stroke="#0A350F" stroke-width="2.207" stroke-miterlimit="10" cx="215.5" cy="215.8" r="7.9"/><path fill="none" stroke="#0A350F" stroke-width="2.207" stroke-miterlimit="10" d="M144.2 150.7c-10.3 5.4-27.9 60.8-39.7 61.8"/><circle fill="none" stroke="#0A350F" stroke-width="2.207" stroke-miterlimit="10" cx="103.9" cy="221.7" r="9.1"/><path fill="#006B00" d="M276.8 242.8c-12.9 0-23.9-4.6-32.8-13.7-8.4-8.6-14.6-20.9-18.3-36.6-7-27.2-11.8-33.9-13.5-35.5-4-3.6-10.9-5.5-19.7-5.7v80.2c0 4-3.2 7.2-7.3 7.2h-49.8c-4 0-7.6-3.2-7.6-7.2v-80.2c-8.1.2-14.8 2-18.6 5.2-2.9 2.6-7.2 8.5-11 22.4-5.6 20.6-9.7 33-12.9 38.9v.1c-9.1 16.5-23 24.9-41.2 24.9-3.9 0-8-.4-12.3-1.2-4.1-.7-8-1.7-11.4-2.8-3-1-5.2-3.8-5.2-7v-40.6c0-2.1 1-4 2.5-5.4 1.4-1.3 3.2-2 5.1-2h.5l4.3.3c3.9-.1 4.9-1.3 5.1-1.7.8-1 3-4.6 6-15.2 7.1-25.5 10.2-31.7 12.4-34.4l.1-.1c1.9-2.4 4.2-4.5 6.8-6.3-2.8-2.4-5.4-5.3-7.6-8.7-3.3-5.2-6.3-12.7-9.2-23.1-3.1-11-5.4-16-6.8-18.2-.7-1.2-1.3-1.9-1.7-2.4-.9.1-1.8.2-2.7.4-1.7.4-3.3.8-4.9 1.3-.7.2-1.5.4-2.4.4-1.5 0-3.2-.4-4.5-1.4-1.9-1.4-3.2-3.6-3.2-6V27.3c0-2.7 1.7-5.3 4.1-6.5 7.4-3.8 16-5.7 25.6-5.7 9.7 0 18.4 2.6 25.7 7.8C80.5 30 88.3 41.8 93.2 58.1c6.5 20.8 11.3 28.9 14.3 32.1 3.6 4 9 5.8 16.5 5.8h3.4V26.7c0-4 3.6-7.2 7.6-7.2h49.8c4 0 7.3 3.2 7.3 7.2V96h1c8.1 0 14-1.5 17.5-4.7 3.8-3.5 9.8-12 16.4-33.3 3.6-11.9 8.1-20.9 13.8-27.5 8.8-10.3 20.4-15.4 34.5-15.4 5.3 0 9.7.4 13.5 1.3 3.8.9 7.7 2.4 11.9 4.4 2.5 1.3 4 3.8 4 6.5v41.5c0 2.4-1.2 4.7-3.2 6.1-1.3.8-2.6 1.3-4.1 1.3-.9 0-1.8-.1-2.7-.5-.1-.1-.2-.1-.3-.1-.4 0-.8-.1-1.2-.2-2.9-.7-4.7-1-5.8-1.2-1.2 1.5-4 6.3-8.1 20.3-2.9 10.7-5.9 18.2-9.3 23.2-2.3 3.5-4.9 6.5-7.9 8.9 4.6 3.3 8.2 7.5 10.7 12.6.6 1.2 1.5 3.1 8.5 28 2.9 10.3 5 14 6 15.3.3.4 1.3 1.6 4.9 1.7l4.1-.5c.3-.1.7-.1 1-.1 1.8 0 3.5.7 4.8 1.8 1.6 1.4 2.5 3.4 2.5 5.5v40.9c0 2.8-1.5 5.4-4 6.6-1.1.5-2.7 1.2-10.7 2.7-5.3 1.1-9.7 1.7-13.1 1.7z" opacity=".3" filter="url(#a)"/><radialGradient id="b" cx="252.203" cy="187.898" r="152.647" gradientTransform="matrix(1 0 0 -1 -96 416)" gradientUnits="userSpaceOnUse"><stop offset="0" stop-color="#007100"/><stop offset="1" stop-color="#8ED33A"/></radialGradient><path fill="url(#b)" d="M135.4 231.4v-87.7h-5.5c-11.5 0-19.9 2.4-25.4 7.1-5.4 4.7-9.9 13.4-13.4 26-5.3 19.6-9.4 32.1-12.3 37.4-7.8 14.1-19.3 21.1-34.7 21.1-3.5 0-7.1-.4-10.9-1-3.8-.7-7.2-1.5-10.3-2.6v-40.6l4.6.3c5.1 0 8.8-1.5 11.3-4.6 2.4-3.1 4.8-9 7.2-17.7 5.1-18.4 8.8-29 11-31.8 4.3-5.3 10.9-8.9 19.7-10.7-8.4-1-15.1-5.3-20-12.9-2.9-4.5-5.7-11.5-8.3-21-2.6-9.6-5.2-16.3-7.6-20.2-2.4-3.9-4.6-5.8-6.5-5.8-1.8 0-3.8.2-5.7.6-2 .4-3.8 1-5.7 1.5V27.3c6.3-3.3 13.8-4.9 22.1-4.9 8.2 0 15.4 2.1 21.6 6.5 8.8 6.2 15.4 16.6 20 31.3 5.5 17.8 10.8 29.5 15.8 35s12.4 8.3 22 8.3h11V26.7h49.8v76.9h8.3c10 0 17.5-2.3 22.4-6.8 6.5-6 12.7-18.2 18.5-36.6 3.3-10.9 7.4-19.2 12.3-24.9 7.4-8.6 17-12.9 28.9-12.9 4.7 0 8.7.4 11.8 1.1 3.2.7 6.6 2 10.3 3.8v41.5c-1-.4-1.8-.6-2.4-.6-4.1-1-7.1-1.5-8.9-1.5-4.3 0-8.9 8.6-13.8 25.7-2.6 9.8-5.4 16.8-8.3 21.2-4.9 7.6-11.7 11.8-20.3 12.9 11 2.4 18.7 7.8 22.7 16 .8 1.6 3.5 10.5 8 26.7 2.4 8.8 4.9 14.7 7.2 17.8 2.4 3.1 6.1 4.6 11.3 4.6l4.6-.6v40.9c-.8.4-3.8 1.1-8.9 2.1-5.1 1-9.1 1.5-12 1.5-10.9 0-20-3.8-27.5-11.5s-12.9-18.8-16.5-33.2c-5.5-21.6-10.7-34.7-15.7-39.2-5.7-5.1-14.6-7.6-26.4-7.6h-5.5v87.6l-49.9-.2z"/><path fill="#FFF" d="M276.8 220.7c-6.9 0-12.3-2.2-17-7.1-5.6-5.7-9.8-14.6-12.7-26.4 0-.1 0-.1-.1-.2-8.2-32.4-14.8-41.6-20-46.4l-.1-.1c-8.5-7.6-20.7-11.4-36.2-11.4h-5.5c-8.1 0-14.8 6.6-14.8 14.7v72.8h-20.6v-72.8c0-8.1-6.3-14.7-14.4-14.7h-5.5c-15.1 0-26.8 3.6-35 10.7-7.7 6.7-13.6 17.6-17.9 33.2-6.8 24.9-9.9 32.2-11 34.3-5.1 9.3-12.1 13.5-22 13.5-2.1 0-3.8-.1-6.7-.5v-15.5c6.6-2 10.4-5.7 12.9-8.8 3.6-4.7 6.8-11.9 9.8-22.7 5.5-19.7 8-25.5 8.8-27 2.1-2.4 5.8-4 10.9-5.1 7.1-1.5 12-7.8 11.7-15-.3-7.2-5.7-13.1-12.9-14-4-.5-6.8-2.4-9.4-6.3-1.2-1.8-3.5-6.5-6.5-17.1C59.5 77.6 56.3 70 53 64.7c-1.6-2.9-6.8-10.8-15.6-12.4V37.8c2.9-.4 4.9-.7 7.6-.7 5.1 0 9.5 1.3 13.2 3.8 6 4.2 10.9 12.1 14.4 23.6 6.3 20.4 12.4 33.2 19 40.5 7.9 8.7 19 13 32.9 13h11c8.1 0 14.4-6.4 14.4-14.5v-62h20.6v62c0 8.1 6.7 14.5 14.8 14.5h8.3c13.8 0 24.6-3.5 32.4-10.5 8.8-7.9 15.9-21.6 22.6-43 0-.1 0-.1.1-.1 2.6-8.7 5.9-15.4 9.4-19.6 4.6-5.3 10.1-7.8 17.7-7.8 3.5 0 5.9.2 7.4.5v14.6c-14 2.4-19.9 19.8-24.6 36.1 0 .1 0 .1-.1.2-2.9 10.8-5.2 15.2-6.3 16.8 0 .1-.1.1-.1.1-2.6 3.9-5.4 5.8-9.7 6.3-7.1.8-12.6 6.7-12.9 13.9-.4 7.1 4.5 13.5 11.5 15.1 8.3 1.8 11.3 5.3 12.6 7.8.4 1.3 2.1 6.2 7.1 24.4 3.1 11 6 18.1 9.7 22.8 2.5 3.2 6.8 6.9 12.7 8.9V220c-3.8.6-5.4.7-6.3.7z" opacity=".5" filter="url(#a)"/><circle fill="#FFF" stroke="#000" stroke-miterlimit="10" cx="51.4" cy="48" r="15.3"/><circle cx="56.3" cy="50.8" r="5.2"/><circle fill="#FFF" stroke="#000" stroke-miterlimit="10" cx="159.5" cy="45.8" r="15.3"/><circle cx="159.3" cy="47.1" r="5.2"/><circle fill="#FFF" stroke="#000" stroke-miterlimit="10" cx="274.3" cy="47.3" r="15.3"/><circle cx="271.1" cy="49.3" r="5.2"/><path fill="none" stroke="#0A350F" stroke-width="3.678" stroke-miterlimit="10" d="M78.7 95.7c25.5 16.7 49.9 37.3 81.6 37.7 31.6.4 57.1-21.6 72.4-35.3"/></svg>