<svg xmlns="http://www.w3.org/2000/svg" width="320" height="455" viewBox="0 0 320 455"><filter id="a"><feGaussianBlur stdDeviation="7"/></filter><path fill="#00F" d="M122.2 439.7c-4.7 0-8.8-4-8.8-8.7v-75H23.6c-4.7 0-8.5-3.8-8.5-8.6V23.6c0-4.7 3.8-8.6 8.5-8.6h78.7c4.7 0 8.5 3.9 8.5 8.6v251.2h98.4V23.6c0-4.7 4-8.6 8.7-8.6h78.7c4.7 0 8.4 3.9 8.4 8.6v323.7c0 4.7-3.5 8.6-8.4 8.6h-90v75c0 4.7-3.8 8.7-8.6 8.7h-75.8z" opacity=".3" filter="url(#a)"/><path fill="#F48C86" d="M83.5 277.5l-.9.6c16.3 9.9 36.5 16.7 61.7 18.6 42.7 3.3 74.5-6.6 97.7-23.4-.4-.2-.8-.3-1.2-.4-93.4-33-157.3 4.6-157.3 4.6z"/><path opacity=".55" fill="#FACED5" enable-background="new" d="M169.9 278.4c-13.3-.5-24-3.4-23.8-6.5.1-3.1 11-5.3 24.3-4.7 13.3.5 24 3.4 23.8 6.5-.2 3-11 5.2-24.3 4.7z"/><linearGradient id="b" gradientUnits="userSpaceOnUse" x1="256.112" y1="42.803" x2="256.112" y2="199.037" gradientTransform="matrix(1 0 0 -1 -96 416)"><stop offset="0" stop-color="#AA8FFF"/><stop offset="1" stop-color="#3CF"/></linearGradient><path fill="url(#b)" d="M217.9 283.7V23.6h78.7v323.7H198v83.6h-75.8v-83.6H23.6V23.6h78.7v260.1h115.6z"/><path fill="#FFF" d="M139.3 413.8v-66.5c0-9.5-7.6-17.3-17.1-17.3H40.9V40.9h44v242.8c0 9.5 7.9 17 17.3 17h115.7c9.5 0 17.2-7.5 17.2-17V40.9h44V330H198c-9.5 0-17.3 7.8-17.3 17.3v66.5h-41.4z" opacity=".5" filter="url(#a)"/><circle fill="#FFF" stroke="#000" stroke-miterlimit="10" cx="62.1" cy="63.4" r="22.5"/><circle cx="61.7" cy="65.4" r="7.8"/><circle fill="#FFF" stroke="#000" stroke-miterlimit="10" cx="260.1" cy="63.4" r="22.5"/><circle cx="259.7" cy="65.4" r="7.8"/><path fill="none" stroke="#0071BC" stroke-width="4.316" stroke-miterlimit="10" d="M198.1 405.3s39.5.6 42.9.6c3.5 0 5-2.5 5.3-8.7.3-6.2-4.1-28-4.1-28m-120.9 37.4l-38-.6s-10.3-1.6-13.7-5.9c-3.5-4.3.6-6.2.6-6.2l5.6-24.6"/><circle fill="none" stroke="#0071BC" stroke-width="4.316" stroke-miterlimit="10" cx="237.9" cy="366.5" r="5.9"/><circle fill="none" stroke="#0071BC" stroke-width="4.316" stroke-miterlimit="10" cx="80.5" cy="370.5" r="5.9"/></svg>