<svg xmlns="http://www.w3.org/2000/svg" width="320" height="251.8" viewBox="0 0 320 251.8"><filter id="a"><feGaussianBlur stdDeviation="7"/></filter><path fill="#273F00" d="M20.8 236c-3.1 0-5.7-2.7-5.7-5.8V20.6c0-3.1 2.6-5.6 5.7-5.6h51c3.1 0 6 2.5 6 5.6V183h50.8V20.6c0-3.1 3.1-5.6 6.2-5.6h51c3.1 0 5.5 2.5 5.5 5.6V183h51.5V20.6c0-3.1 2.8-5.6 5.9-5.6h51c3.1 0 5.8 2.5 5.8 5.6v209.7c0 3.1-2.8 5.8-5.8 5.8L20.8 236z" opacity=".3" filter="url(#a)"/><linearGradient id="b" gradientUnits="userSpaceOnUse" x1="256.215" y1="223.506" x2="256.215" y2="308.835" gradientTransform="matrix(1 0 0 -1 -96 416)"><stop offset="0" stop-color="#00B200"/><stop offset="1" stop-color="#8ED33A"/></linearGradient><path fill="url(#b)" d="M20.8 230.2V20.6h51V189h62.9V20.6h51V189h62.9V20.6h51v209.7l-278.8-.1z"/><path fill="#FFF" d="M32.2 218.8V31.4h28.4V189c0 6.2 5 11.2 11.2 11.2h62.9c6.2 0 11-5 11-11.2V31.4h29.1V189c0 6.2 4.7 11.2 10.9 11.2h62.9c6.2 0 11.3-5 11.3-11.2V31.4H289v187.4H32.2z" opacity=".5" filter="url(#a)"/><circle fill="#FFF" stroke="#000" stroke-width=".821" stroke-miterlimit="10" cx="44.3" cy="46.3" r="19"/><circle cx="48.4" cy="47.9" r="6.5"/><circle fill="#FFF" stroke="#000" stroke-width=".821" stroke-miterlimit="10" cx="275" cy="46.3" r="19"/><circle cx="271" cy="47.9" r="6.5"/><path fill="none" stroke="#0F3311" stroke-width="2.987" stroke-miterlimit="10" d="M137.3 120.3c18.8 17.1 26.6 16.1 46.1 0M55.2 166.6c-2.2 12.5-40.5 45-11.5 47.8s67.1-4.4 67.1-4.4"/><circle fill="none" stroke="#0F3311" stroke-width="2.987" stroke-miterlimit="10" cx="117.1" cy="209.4" r="8.3"/><path fill="none" stroke="#0F3311" stroke-width="2.987" stroke-miterlimit="10" d="M260.5 161.3s44 45.2 23 55.2-75.5-3.8-75.5-3.8"/><circle fill="none" stroke="#0F3311" stroke-width="2.987" stroke-miterlimit="10" cx="201.5" cy="212.4" r="7.8"/></svg>