<svg xmlns="http://www.w3.org/2000/svg" width="320" height="450" viewBox="0 0 320 450"><filter id="a"><feGaussianBlur stdDeviation="7"/></filter><path fill="#006168" d="M75.6 439.8c-4.6 0-8.4-3.5-8.4-8v-322c0-4.6 3.8-8.7 8.4-8.7h183.8c4.6 0 8.3 4.1 8.3 8.7v63.4c0 4.6-3.7 8.3-8.3 8.3h-96.9v250.4c0 4.6-4 8-8.5 8H75.6zM137 98.5c-2.8 0-5.5-1.7-7-4-1.5-2.4-1.7-5.5-.6-8l29-64.4c1.3-3 4.3-4.9 7.5-4.9h70.6c3.3 0 6.4 2 7.6 5.1 1.3 3.1.6 6.6-1.7 8.9l-62.9 64.5c-1.6 1.6-3.7 2.7-6 2.7l-36.5.1z" opacity=".3" filter="url(#a)"/><circle fill="#FFF" stroke="#11464F" stroke-width=".828" stroke-miterlimit="10" cx="188.6" cy="96" r="16.2"/><circle cx="192.1" cy="99" r="6"/><path fill="#B9D7DE" stroke="#11464F" stroke-width="4.141" stroke-miterlimit="10" d="M259.4 173.1H153.9v258.7H75.6v-322h183.8v63.3zM137 89.8l29-64.3h70.6l-62.9 64.3H137z"/><path fill="#FFF" d="M92.1 414.9v-289h150.7v30.6h-88.9c-9.1 0-16.3 7.4-16.3 16.6V415H92.1zm70.5-341.2l14.1-31.5h20.5l-30.5 31.5h-4.1z" opacity=".3" filter="url(#a)"/><circle fill="#FFF" stroke="#11464F" stroke-width=".828" stroke-miterlimit="10" cx="125" cy="101.7" r="20.5"/><circle cx="129.5" cy="105.3" r="7.5"/><path fill="#FFEEDE" stroke="#11464F" stroke-width=".828" stroke-miterlimit="10" d="M153.8 195c-15.7 0-25.4-11.2-35.4-15.3-9.9-4.1 8 32.7 35.4 32.3v-17z"/><path fill="none" stroke="#11464F" stroke-width="2.485" stroke-miterlimit="10" d="M115.7 257.6c17.1-19.6 50.6-32.8 68.3-33.4"/><path fill="none" stroke="#11464F" stroke-width="1.657" stroke-miterlimit="10" d="M153.8 257.6c8.7 7.8 28 17.3 34.9 30.5"/><ellipse fill="none" stroke="#11464F" stroke-width="1.657" stroke-miterlimit="10" cx="192.1" cy="290.4" rx="6" ry="6.5"/><circle fill="none" stroke="#11464F" stroke-width="2.485" stroke-miterlimit="10" cx="192.1" cy="222.8" r="8.1"/></svg>