<svg xmlns="http://www.w3.org/2000/svg" width="320" height="395.5" viewBox="0 0 320 395.5"><filter id="a"><feGaussianBlur stdDeviation="7"/></filter><path fill="#AD00A9" d="M210.9 380.9c-5.1 0-9.6-4.1-9.6-9.3V247.4c-9.3 2.1-18.5 3.7-28.1 4.9-13.5 1.6-27.5 2.4-41.7 2.4-45.4 0-77.8-13.2-96.6-39.3-13.2-18.6-19.8-46-19.8-81.2v-110c0-5.1 4-9.3 9.1-9.3h84.5c5.1 0 9.3 4.2 9.3 9.3v107.3c0 20.4 4 27.4 6.4 29.8 1.9 1.9 8.8 6.5 30.8 6.5 9.6 0 18.6-.6 27.1-1.9 6.4-1 12.6-2.6 19.1-4.7v-137c0-5.1 4.4-9.3 9.6-9.3h84.5c5.1 0 9.6 4.2 9.6 9.3v347.4c0 5.1-4.5 9.3-9.6 9.3h-84.6z" opacity=".3" filter="url(#a)"/><circle fill="#FFF" stroke="#000" stroke-width=".926" stroke-miterlimit="10" cx="159.2" cy="163.1" r="18.2"/><circle cx="155.2" cy="166.5" r="6.7"/><linearGradient id="b" gradientUnits="userSpaceOnUse" x1="255.726" y1="114.744" x2="255.726" y2="307.59" gradientTransform="matrix(1 0 0 -1 -96 416)"><stop offset="0" stop-color="#F0F"/><stop offset="1" stop-color="#FF6CBA"/></linearGradient><path fill="url(#b)" d="M210.9 167.7V24.2h84.5v347.4h-84.5V235.5c-12.5 3.5-25.4 6-38.6 7.6s-26.8 2.3-40.7 2.3c-42.4 0-72.2-11.9-89.2-35.5-12.1-17-18.3-42.2-18.3-75.6V24.2h84.5v107.3c0 18.2 3.1 30.3 9.2 36.4 6.1 6.1 18.5 9.2 37.3 9.2 10.1 0 19.6-.6 28.7-2.1 8.9-1.4 18-3.8 27.1-7.3z"/><path fill="#FFF" d="M229 353.1V235.6c0-5.8-2.5-11.2-7.1-14.7-3.2-2.5-7.1-3.8-11.1-3.8-1.7 0-3.2.2-4.9.6-11.5 3.2-23.5 5.6-35.8 7-12.4 1.5-25.4 2.2-38.5 2.2-36.4 0-60.6-9.1-74-27.8-9.8-13.7-14.7-35.6-14.7-64.9V42.8h47.2v88.8c0 23.8 4.6 39.6 14.5 49.5 9.9 9.9 25.9 14.6 50.4 14.6 11 0 21.6-.7 31.5-2.3 10.3-1.6 20.6-4.4 30.8-8.3 7.1-2.8 11.7-9.6 11.7-17.3v-125h48.2v310.4H229z" opacity=".5" filter="url(#a)"/><circle fill="#FFF" stroke="#000" stroke-width=".926" stroke-miterlimit="10" cx="199.7" cy="166.7" r="23"/><circle cx="194.7" cy="170.8" r="8.4"/><path fill="none" stroke="#FFF" stroke-width="4.632" stroke-miterlimit="10" d="M212.3 254s45.4-3.7 47.2-26.9m-5.5 55.6l-1.8 55.6"/><circle fill="none" stroke="#FFF" stroke-width="4.632" stroke-miterlimit="10" cx="254" cy="346.7" r="9.3"/></svg>