<svg xmlns="http://www.w3.org/2000/svg" width="320" height="463.9" viewBox="0 0 320 463.9"><filter id="a"><feGaussianBlur stdDeviation="7"/></filter><path fill="none" stroke="#000" stroke-width="4.262" stroke-miterlimit="10" d="M122.6 402.6c-30-2-55.3.6-66.4 9.2"/><circle fill="none" stroke="#000" stroke-width="4.262" stroke-miterlimit="10" cx="49.3" cy="413.8" r="10.2"/><path fill="#303F1B" d="M167.5 443.7c-18.2 0-33.3-1.2-45-3.5-11.9-2.3-23.8-6.4-34.9-11.9l-6.1-3V324.1l14.9 6.2c9.2 3.8 17.7 6.4 25.2 7.6 9.7 1.5 14.6 1.8 16.9 1.8 11.5 0 14.9-2.2 15.2-2.5.6-.5 2.2-3.3 2.2-9.7V15h118.3v330c0 21.8-4.9 40.7-14.4 55.9-17.3 28.4-48.6 42.8-92.3 42.8z" opacity=".2" filter="url(#a)"/><circle fill="#FFF" stroke="#000" stroke-width=".723" stroke-miterlimit="10" cx="154.3" cy="334.9" r="16.7"/><circle cx="151.3" cy="339.8" r="5.8"/><path fill="#8ED33A" d="M166.3 25.6h97.2v319.3c0 19.9-4.2 36.8-12.6 50.3-15.6 25.1-43.4 37.7-83.4 37.7-17.6 0-31.9-1.1-42.9-3.3-11-2.2-21.7-5.9-32.1-11.1v-78.7c10 4.2 19.2 6.9 27.6 8.2 8.4 1.3 14.6 2 18.6 2 10.4 0 17.6-1.6 21.6-4.8 3.9-3.2 6-9.2 6-18V25.6z"/><path fill="#FFF" d="M167.5 411.7c-16.1 0-29.3-1-38.9-2.9-5-1-9.7-2.3-15-4.2v-35.9c1.1.2 2.1.3 3.1.5 9.7 1.5 16.7 2.2 21.9 2.2 15.8 0 27.1-3 35.2-9.5 9.3-7.5 14.3-19.1 14.3-34.6V46.9h54.3v298c0 15.9-3.3 29-9.6 39.1-11.4 18.7-33 27.7-65.3 27.7z" opacity=".5" filter="url(#a)"/><circle fill="#FFF" stroke="#000" stroke-width=".83" stroke-miterlimit="10" cx="188.6" cy="344" r="19.2"/><circle cx="186.7" cy="347.9" r="6.6"/><path fill="none" stroke="#000" stroke-width="4.262" stroke-miterlimit="10" d="M92.6 377.7c11.7 9.5 49.8 17.7 67.4 8.8m-24.3 32.8s-26.4 41-67.3 24.1"/><circle fill="none" stroke="#000" stroke-width="4.262" stroke-miterlimit="10" cx="56.2" cy="442" r="11.9"/></svg>