<svg xmlns="http://www.w3.org/2000/svg" width="320" height="260.1" viewBox="0 0 320 260.1"><filter id="a"><feGaussianBlur stdDeviation="7"/></filter><path fill="#662D91" d="M49.1 230.5c-4.8 0-9.5-.5-14.2-1.5-4.8-1-10.2-3-17-6.3-1.9-.9-2.8-2.8-2.8-4.9v-39.9c0-1.8.6-3.4 2-4.4.9-.6 1.8-1 2.9-1 .7 0 1.3.1 1.8.4 3.1 1.2 6.1 2.1 9.1 2.7 2.9.6 5.6.9 8.3.9 5.2 0 7.2-1.8 8-3.5.7-1.3 1.8-3.8 1.8-8.9V20c0-3 1.7-5 4.6-5H204c3 0 5.8 2.1 5.8 5v72.4h25.9c22.1 0 39.8 7.5 52.6 21.9 11.1 12.5 16.7 27.7 16.7 45.4 0 18.3-6.3 34-18.8 46.3-13.9 13.6-32.9 20.7-56.6 20.7h-74.5c-3 0-5.8-2.6-5.8-5.5v-156H108v103.6c0 21.7-5.1 37.6-15.1 47.3-9.9 9.5-24.7 14.4-43.8 14.4zm176.4-54.7c5.7 0 10.3-1.6 14.1-5.3 3.8-3.7 5.6-7.7 5.6-12.6 0-5.1-1.5-11.1-12.7-13.6-3.2-.7-6.7-1-10.3-1h-12.3v32.5h15.6z" opacity=".3" filter="url(#a)"/><path d="M213.2 176.7c0 1-.7 1.7-1.7 1.7h-8.4c-1 0-1.7-.7-1.7-1.7v-8.4c0-1 .7-1.7 1.7-1.7h8.4c1 0 1.7.7 1.7 1.7v8.4zm0-12.6c0 1-.7 1.7-1.7 1.7h-8.4c-1 0-1.7-.7-1.7-1.7v-8.4c0-1 .7-1.7 1.7-1.7h8.4c1 0 1.7.7 1.7 1.7v8.4zm0-13.2c0 1-.7 1.7-1.7 1.7h-8.4c-1 0-1.7-.7-1.7-1.7v-8.4c0-1 .7-1.7 1.7-1.7h8.4c1 0 1.7.7 1.7 1.7v8.4z" fill="#FFEEDE" stroke="#D3C79E" stroke-miterlimit="10"/><path fill="#F48C86" d="M245.9 180.7l.1.3c2.6-4.6 4.3-10.4 4.6-17.4.5-12-2.6-20.7-7.5-27.1-.1.1-.1.2-.1.4-8.2 26.3 2.9 43.8 2.9 43.8z"/><path opacity=".55" fill="#FACED5" enable-background="new" d="M247.6 159.8c0 5.2-1 9.5-2.2 9.5-1.3 0-2.2-4.3-2.2-9.5s1-9.5 2.2-9.5c1.2-.1 2.2 4.2 2.2 9.5z"/><radialGradient id="b" cx="370.987" cy="197.459" r="167.416" gradientTransform="matrix(1 0 0 -1 -146 356)" gradientUnits="userSpaceOnUse"><stop offset=".572" stop-color="#FF6CBA"/><stop offset="1" stop-color="#F0F"/></radialGradient><path fill="url(#b)" d="M155.1 59.6h-52.5v109.1c0 20.3-4.5 34.7-13.4 43.4-8.9 8.6-22.3 13-40 13-4.4 0-8.8-.4-13.1-1.3-4.4-.9-9.7-2.9-16.2-5.8v-40c3.4 1.3 6.7 2.3 10 3s6.3 1 9.4 1c6 0 10.2-2.1 12.4-6.3 1.4-2.6 2.1-6.4 2.1-11.4V20h150.4v78.2h31.7c20.5 0 36.7 6.6 48.6 19.9 10.3 11.5 15.4 25.4 15.4 41.7 0 16.9-5.8 31-17.2 42.3-12.9 12.7-30.5 19-52.8 19h-74.8V59.6zm48.9 122h21.5c7 0 13-2.4 17.9-7 4.8-4.7 7.2-10.2 7.2-16.5 0-10.2-5.6-16.5-16.9-19-3.6-.8-7.5-1.3-11.5-1.3H204v43.8z"/><path fill="#FFF" d="M49.1 214.4c-3.7 0-7-.4-10.5-1.1-2.1-.4-5-1.3-7.2-2.4V192c2.2.4 5.4.7 8.2.7 13.5 0 19.3-7.5 21.8-12 2.3-4.2 3.2-9.7 3.2-16.5v-133H193v67.1c0 5.9 5.2 11.1 11.1 11.1h31.7c17.5 0 30.8 5.2 40.6 16.2 8.6 9.5 12.7 20.7 12.7 34.5 0 14-4.6 25.3-14 34.6-10.9 10.7-25.7 15.9-45.4 15.9h-63.4v-151c0-5.9-5.2-10.7-11.2-10.7h-52.5c-5.9 0-10.8 4.7-10.8 10.7v109.1c0 17.2-3.4 29.2-10.1 35.7-6.9 6.6-17.8 10-32.6 10zM204 127.1c-5.9 0-11.1 4.8-11.1 10.7v43.8c0 5.9 5.2 11.2 11.1 11.2h21.5c9.9 0 18.4-3.6 25.3-10.3 6.9-6.6 10.5-15.2 10.5-24.3 0-15.2-9.2-26-25.3-29.5-4.4-1-9-1.5-13.8-1.5H204z" opacity=".5" filter="url(#a)"/><circle fill="#FFF" stroke="#000" stroke-miterlimit="10" cx="177.7" cy="182.7" r="14.6"/><circle cx="180.4" cy="180.8" r="5"/><circle fill="#FFF" stroke="#000" stroke-miterlimit="10" cx="177.7" cy="129.6" r="14.6"/><circle cx="180.4" cy="131.5" r="5"/><path fill="none" stroke="#330F33" stroke-width="2.451" stroke-miterlimit="10" d="M246.1 216.7c5.5 5.1 12.6 38.4 20.5 21s12.9-43.3 12.9-43.3"/><path fill="none" stroke="#330F33" stroke-width="2.793" stroke-miterlimit="10" d="M236.2 102.3s31.1-30.3 38.1-15.9c6.9 14.5-2.7 52.1-2.7 52.1"/><circle fill="none" stroke="#330F33" stroke-width="2.793" stroke-miterlimit="10" cx="269.9" cy="140.8" r="5.4"/><circle fill="none" stroke="#330F33" stroke-width="2.793" stroke-miterlimit="10" cx="281" cy="190.3" r="5.8"/></svg>