<svg xmlns="http://www.w3.org/2000/svg" width="320" height="478.8" viewBox="0 0 320 478.8"><filter id="a"><feGaussianBlur stdDeviation="7"/></filter><path fill="none" stroke="#006837" stroke-width="3.658" stroke-miterlimit="10" d="M147.4 374.9c-38.6-18.1-56 13.4-70.1-7.1"/><circle fill="none" stroke="#006837" stroke-width="3.658" stroke-miterlimit="10" cx="154.2" cy="375.2" r="7.4"/><circle fill="#FFF" stroke="#000" stroke-width=".671" stroke-miterlimit="10" cx="297.1" cy="99.7" r="19.9"/><circle cx="302.6" cy="100" r="6.9"/><path fill="#355600" d="M260.5 472.5c-16.6 0-31.6-5.6-44.9-16.5l-.1-.1c-16.8-14.2-29.1-35.8-36.4-64-8.3-32.1-12.6-43.7-14.8-48-8.3-16.6-19.7-24.5-34.6-24.5h-13.3v137.2c0 5-4.4 9.1-9.4 9.1H23.7c-5 0-8.7-4-8.7-9.1V113.7c0-5 3.7-9.1 8.7-9.1h83.4c5 0 9.4 4.1 9.4 9.1v119.8h6c15 0 25.8-3.8 32.9-11.6 5.5-5.9 14.3-20.2 25.2-54.8 8.1-26.5 20.4-45.8 36.4-57.2 11.9-8.3 26-12.5 41.9-12.5 8.6 0 15.8.6 21.9 2s12.3 3.7 19.1 7.1c3.1 1.6 4.8 4.8 4.8 8.1v69.5c0 3-1.3 5.8-3.7 7.5-1.6 1.1-3.3 1.6-5.1 1.6-1 0-2-.2-3.1-.5-3.3-1.2-6.1-2-8.5-2.5s-4.8-.8-7.4-1.1c-1 .5-5.9 3.9-12.8 22.7-10.1 27.3-11.3 30.5-11.9 31.5-4.6 10.2-9.8 18.3-15.7 24.1l-.1.1c-4.6 4.3-9.7 8-15.4 10.8 11.7 5.7 20.6 13.7 26.7 24.2 2.2 3.7 6.1 12.4 16.4 46.7 3.6 12 6 17.6 7.5 20.4 3.8 7.2 8.8 10.5 15.9 10.6l8-.5h.5c2.3 0 4.4.9 6.1 2.5 1.8 1.7 2.7 4.1 2.7 6.7v68c0 4-2.5 7.6-6.3 8.8-4.8 1.5-10.5 2.8-17.7 4.3-7.5 1.7-14.2 2.5-20.3 2.5zM126.7 101.9c-3.1 0-6-1.6-7.7-4.2-1.6-2.7-1.9-5.9-.6-8.8l30.9-68.5c1.5-3.3 4.8-5.4 8.3-5.4h75.2c3.7 0 7 2.2 8.4 5.6 1.5 3.4.6 7.3-1.9 10l-67 68.4c-1.7 1.7-4.1 2.8-6.6 2.8h-39z" opacity=".3" filter="url(#a)"/><path opacity=".6" fill="#FDFAED" stroke="#D9E021" stroke-width="3.68" stroke-miterlimit="10" enable-background="new" d="M221.6 313.5s58.3-3.5 58.3 13.1 4.4 74 1.5 83.5c-2.9 9.6-14.6 13.1-48.1 13.1-33.6 0-11.7-109.7-11.7-109.7zm0-156.8s58.3-3.5 58.3 13.1 4.4 74 1.5 83.5c-2.9 9.6-14.6 13.1-48.1 13.1-33.6 0-11.7-109.7-11.7-109.7z"/><linearGradient id="b" gradientUnits="userSpaceOnUse" x1="255.911" y1="-15.68" x2="255.911" y2="184.706" gradientTransform="matrix(1 0 0 -1 -96 416)"><stop offset=".078" stop-color="#00BF00"/><stop offset=".972" stop-color="#8ED33A"/></linearGradient><path fill="url(#b)" d="M23.7 456.7v-343h83.4v128.8h15.5c17.5 0 30.7-4.8 39.7-14.4 9-9.6 18-29 27.3-58.2 7.6-24.7 18.6-42.2 32.9-52.5 10.3-7.2 22.5-10.8 36.6-10.8 7.9 0 14.5.6 19.8 1.8 5.3 1.2 11.1 3.4 17.3 6.4v69.5c-3.7-1.4-7.1-2.3-10.1-2.8-2.9-.5-5.9-.9-9.1-1.3-7.2 0-14.4 9.6-21.4 28.8-7 19.2-10.9 29.4-11.6 30.8-4.1 9.2-8.8 16.5-13.9 21.6-8.2 7.9-18.7 12.9-31.4 14.9v4.6c19.6 4.1 33.3 13 41.1 26.7 2.7 4.5 7.9 19.4 15.5 44.7 3.1 10.2 5.9 17.6 8.2 22.1 5.5 10.2 13.5 15.4 24.2 15.4l8.2-.5v68c-4.5 1.4-10.2 2.7-17 4-6.9 1.4-13.1 2-18.6 2-14.4 0-27.4-4.8-39.1-14.4-15.5-13-26.6-32.7-33.5-59.3-6.9-26.5-12-43.2-15.5-50-10-19.8-24.2-29.8-42.7-29.8H107v146.8H23.7zm103-364.1l30.9-68.5h75.2l-66.9 68.5h-39.2z"/><path fill="#FFF" d="M260.5 445c-10.2 0-19.1-3.3-27.4-10.2-12.3-10.4-21.6-27.3-27.4-49.7-9.7-37.3-14.3-48.3-16.8-53.4-16.6-33-41.2-39.7-59.1-39.7h-22.7c-10.1 0-18 7.8-18 17.8v128.5H42.5V132h46.6v110.5c0 10.1 8 18.5 18 18.5h15.5c22.7 0 40.6-6.9 53-20.4 11.1-11.9 21-32.6 31.4-65.1 0-.1 0-.2.1-.2 6.3-20.6 15.1-35 26.1-43 7.2-5 15.7-7.5 26-7.5 6.5 0 11.6.5 15.6 1.4.9.2 1.9.5 2.8.8v34.9h-.5c-23.6 0-34.4 29.6-38.4 40.8-8.5 23-10.4 28.2-11 29.4-.1.1-.1.2-.1.4-3.1 7-6.5 12.4-10 15.9-5.5 5.2-12.5 8.5-21.5 10-8.9 1.5-15.4 9.1-15.4 18v4.6c0 8.7 6 16.1 14.5 17.9 14.4 3 23.9 8.9 29.1 17.9.1.1.1.3.2.4.6 1.1 3.8 7.9 13.5 40.4 3.6 11.8 6.4 19.8 9.5 25.5 6.9 12.9 17.3 21.2 30.1 24V443c0 .2-1.3.3-2.1.5-5.8 1-10.7 1.5-15 1.5zM155 74.4l14.4-32h19.9l-31.2 32H155z" opacity=".5" filter="url(#a)"/><circle fill="#FFF" stroke="#000" stroke-width=".924" stroke-miterlimit="10" cx="251.4" cy="123.3" r="27.4"/><circle cx="262.4" cy="123.8" r="9.4"/><path fill="none" stroke="#006837" stroke-width="3.658" stroke-miterlimit="10" d="M67.8 380.5c22-18.9 69.4 59.2 97.8 7.1"/><circle fill="none" stroke="#006837" stroke-width="3.658" stroke-miterlimit="10" cx="172.2" cy="384" r="7.8"/></svg>